<?xml version="1.0" encoding="UTF-8" standalone="no"?>
<!DOCTYPE svg PUBLIC "-//W3C//DTD SVG 1.1//EN"
 "http://www.w3.org/Graphics/SVG/1.1/DTD/svg11.dtd">
<!-- Generated by graphviz version 12.2.1 (20241206.2353)
 -->
<!-- Pages: 1 -->
<svg width="417pt" height="332pt"
 viewBox="0.00 0.00 417.19 332.00" xmlns="http://www.w3.org/2000/svg" xmlns:xlink="http://www.w3.org/1999/xlink">
<g id="graph0" class="graph" transform="scale(1 1) rotate(0) translate(4 328)">
<polygon fill="white" stroke="none" points="-4,4 -4,-328 413.19,-328 413.19,4 -4,4"/>
<!-- adversary -->
<g id="node1" class="node">
<title>adversary</title>
<ellipse fill="none" stroke="black" cx="184.12" cy="-306" rx="46.75" ry="18"/>
<text text-anchor="middle" x="184.12" y="-300.95" font-family="Times,serif" font-size="14.00">adversary</text>
</g>
<!-- Key -->
<g id="node2" class="node">
<title>Key</title>
<ellipse fill="none" stroke="black" cx="184.12" cy="-234" rx="27" ry="18"/>
<text text-anchor="middle" x="184.12" y="-228.95" font-family="Times,serif" font-size="14.00">Key</text>
</g>
<!-- adversary&#45;&gt;Key -->
<g id="edge1" class="edge">
<title>adversary&#45;&gt;Key</title>
<path fill="none" stroke="black" d="M184.12,-287.7C184.12,-280.41 184.12,-271.73 184.12,-263.54"/>
<polygon fill="black" stroke="black" points="187.62,-263.62 184.12,-253.62 180.62,-263.62 187.62,-263.62"/>
</g>
<!-- Names -->
<g id="node3" class="node">
<title>Names</title>
<ellipse fill="none" stroke="black" cx="41.12" cy="-18" rx="37.02" ry="18"/>
<text text-anchor="middle" x="41.12" y="-12.95" font-family="Times,serif" font-size="14.00">Names</text>
</g>
<!-- Key&#45;&gt;Names -->
<g id="edge2" class="edge">
<title>Key&#45;&gt;Names</title>
<path fill="none" stroke="black" d="M156.79,-233.61C117.75,-232.82 47.1,-224.82 14.12,-180 -15.26,-140.07 8.11,-79.55 25.87,-45.21"/>
<polygon fill="black" stroke="black" points="28.75,-47.24 30.41,-36.78 22.59,-43.92 28.75,-47.24"/>
</g>
<!-- Log -->
<g id="node4" class="node">
<title>Log</title>
<ellipse fill="none" stroke="black" cx="50.12" cy="-162" rx="27" ry="18"/>
<text text-anchor="middle" x="50.12" y="-156.95" font-family="Times,serif" font-size="14.00">Log</text>
</g>
<!-- Key&#45;&gt;Log -->
<g id="edge3" class="edge">
<title>Key&#45;&gt;Log</title>
<path fill="none" stroke="black" d="M163.18,-222.06C141.16,-210.56 106.25,-192.32 81.05,-179.16"/>
<polygon fill="black" stroke="black" points="82.74,-176.09 72.25,-174.56 79.5,-182.29 82.74,-176.09"/>
</g>
<!-- Helpers -->
<g id="node5" class="node">
<title>Helpers</title>
<ellipse fill="none" stroke="black" cx="135.12" cy="-162" rx="39.58" ry="18"/>
<text text-anchor="middle" x="135.12" y="-156.95" font-family="Times,serif" font-size="14.00">Helpers</text>
</g>
<!-- Key&#45;&gt;Helpers -->
<g id="edge4" class="edge">
<title>Key&#45;&gt;Helpers</title>
<path fill="none" stroke="black" d="M173,-217.12C167.13,-208.73 159.79,-198.24 153.13,-188.73"/>
<polygon fill="black" stroke="black" points="156.01,-186.73 147.4,-180.55 150.27,-190.75 156.01,-186.73"/>
</g>
<!-- Handles -->
<g id="node6" class="node">
<title>Handles</title>
<ellipse fill="none" stroke="black" cx="234.12" cy="-162" rx="41.12" ry="18"/>
<text text-anchor="middle" x="234.12" y="-156.95" font-family="Times,serif" font-size="14.00">Handles</text>
</g>
<!-- Key&#45;&gt;Handles -->
<g id="edge5" class="edge">
<title>Key&#45;&gt;Handles</title>
<path fill="none" stroke="black" d="M195.22,-217.46C201.26,-209.01 208.89,-198.32 215.79,-188.66"/>
<polygon fill="black" stroke="black" points="218.51,-190.87 221.48,-180.7 212.82,-186.8 218.51,-190.87"/>
</g>
<!-- Parameters -->
<g id="node7" class="node">
<title>Parameters</title>
<ellipse fill="none" stroke="black" cx="121.12" cy="-90" rx="52.38" ry="18"/>
<text text-anchor="middle" x="121.12" y="-84.95" font-family="Times,serif" font-size="14.00">Parameters</text>
</g>
<!-- Key&#45;&gt;Parameters -->
<g id="edge6" class="edge">
<title>Key&#45;&gt;Parameters</title>
<path fill="none" stroke="black" d="M209.37,-227.47C233.34,-220.73 268.01,-206.77 284.12,-180 292.37,-166.29 293.52,-156.95 284.12,-144 261.48,-112.83 220.04,-99.63 184.61,-94.2"/>
<polygon fill="black" stroke="black" points="185.23,-90.75 174.85,-92.89 184.3,-97.69 185.23,-90.75"/>
</g>
<!-- Sample -->
<g id="node8" class="node">
<title>Sample</title>
<ellipse fill="none" stroke="black" cx="370.12" cy="-162" rx="39.07" ry="18"/>
<text text-anchor="middle" x="370.12" y="-156.95" font-family="Times,serif" font-size="14.00">Sample</text>
</g>
<!-- Key&#45;&gt;Sample -->
<g id="edge7" class="edge">
<title>Key&#45;&gt;Sample</title>
<path fill="none" stroke="black" d="M207.3,-224.28C237.97,-212.73 292.51,-192.21 329.95,-178.12"/>
<polygon fill="black" stroke="black" points="330.96,-181.48 339.08,-174.68 328.49,-174.93 330.96,-181.48"/>
</g>
<!-- Log&#45;&gt;Names -->
<g id="edge8" class="edge">
<title>Log&#45;&gt;Names</title>
<path fill="none" stroke="black" d="M49.02,-143.59C47.5,-119.61 44.74,-76.14 42.92,-47.42"/>
<polygon fill="black" stroke="black" points="46.43,-47.38 42.3,-37.62 39.44,-47.82 46.43,-47.38"/>
</g>
<!-- Log&#45;&gt;Parameters -->
<g id="edge9" class="edge">
<title>Log&#45;&gt;Parameters</title>
<path fill="none" stroke="black" d="M64.83,-146.5C73.93,-137.52 85.85,-125.77 96.38,-115.4"/>
<polygon fill="black" stroke="black" points="98.7,-118.02 103.36,-108.51 93.78,-113.04 98.7,-118.02"/>
</g>
<!-- Parameters&#45;&gt;Names -->
<g id="edge10" class="edge">
<title>Parameters&#45;&gt;Names</title>
<path fill="none" stroke="black" d="M102.57,-72.76C91.97,-63.5 78.53,-51.73 66.92,-41.58"/>
<polygon fill="black" stroke="black" points="69.45,-39.14 59.62,-35.19 64.84,-44.4 69.45,-39.14"/>
</g>
</g>
</svg>
