<?xml version="1.0" encoding="UTF-8" standalone="no"?>
<!DOCTYPE svg PUBLIC "-//W3C//DTD SVG 1.1//EN"
 "http://www.w3.org/Graphics/SVG/1.1/DTD/svg11.dtd">
<!-- Generated by graphviz version 12.2.1 (20241206.2353)
 -->
<!-- Pages: 1 -->
<svg width="318pt" height="260pt"
 viewBox="0.00 0.00 318.07 260.00" xmlns="http://www.w3.org/2000/svg" xmlns:xlink="http://www.w3.org/1999/xlink">
<g id="graph0" class="graph" transform="scale(1 1) rotate(0) translate(4 256)">
<polygon fill="white" stroke="none" points="-4,4 -4,-256 314.07,-256 314.07,4 -4,4"/>
<!-- Names -->
<g id="node1" class="node">
<title>Names</title>
<ellipse fill="none" stroke="black" cx="124" cy="-234" rx="37.02" ry="18"/>
<text text-anchor="middle" x="124" y="-228.95" font-family="Times,serif" font-size="14.00">Names</text>
</g>
<!-- Xtr -->
<g id="node2" class="node">
<title>Xtr</title>
<ellipse fill="none" stroke="black" cx="196" cy="-162" rx="27" ry="18"/>
<text text-anchor="middle" x="196" y="-156.95" font-family="Times,serif" font-size="14.00">Xtr</text>
</g>
<!-- Names&#45;&#45;Xtr -->
<g id="edge1" class="edge">
<title>Names&#45;&#45;Xtr</title>
<path fill="none" stroke="black" d="M139.98,-217.46C152.41,-205.38 169.5,-188.76 181.53,-177.07"/>
</g>
<!-- Xpd -->
<g id="node3" class="node">
<title>Xpd</title>
<ellipse fill="none" stroke="black" cx="27" cy="-90" rx="27" ry="18"/>
<text text-anchor="middle" x="27" y="-84.95" font-family="Times,serif" font-size="14.00">Xpd</text>
</g>
<!-- Names&#45;&#45;Xpd -->
<g id="edge2" class="edge">
<title>Names&#45;&#45;Xpd</title>
<path fill="none" stroke="black" d="M112.68,-216.43C93.79,-188.78 56.09,-133.59 37.65,-106.6"/>
</g>
<!-- Log -->
<g id="node4" class="node">
<title>Log</title>
<ellipse fill="none" stroke="black" cx="124" cy="-162" rx="27" ry="18"/>
<text text-anchor="middle" x="124" y="-156.95" font-family="Times,serif" font-size="14.00">Log</text>
</g>
<!-- Names&#45;&#45;Log -->
<g id="edge3" class="edge">
<title>Names&#45;&#45;Log</title>
<path fill="none" stroke="black" d="M124,-215.7C124,-204.85 124,-190.92 124,-180.1"/>
</g>
<!-- Sample -->
<g id="node5" class="node">
<title>Sample</title>
<ellipse fill="none" stroke="black" cx="271" cy="-90" rx="39.07" ry="18"/>
<text text-anchor="middle" x="271" y="-84.95" font-family="Times,serif" font-size="14.00">Sample</text>
</g>
<!-- Xtr&#45;&#45;Sample -->
<g id="edge4" class="edge">
<title>Xtr&#45;&#45;Sample</title>
<path fill="none" stroke="black" d="M211.18,-146.83C223.68,-135.17 241.38,-118.65 254.28,-106.61"/>
</g>
<!-- Parameters -->
<g id="node6" class="node">
<title>Parameters</title>
<ellipse fill="none" stroke="black" cx="124" cy="-90" rx="52.38" ry="18"/>
<text text-anchor="middle" x="124" y="-84.95" font-family="Times,serif" font-size="14.00">Parameters</text>
</g>
<!-- Xtr&#45;&#45;Parameters -->
<g id="edge5" class="edge">
<title>Xtr&#45;&#45;Parameters</title>
<path fill="none" stroke="black" d="M181.08,-146.5C169.38,-135.12 153.1,-119.29 140.92,-107.45"/>
</g>
<!-- Hash -->
<g id="node7" class="node">
<title>Hash</title>
<ellipse fill="none" stroke="black" cx="76" cy="-18" rx="29.86" ry="18"/>
<text text-anchor="middle" x="76" y="-12.95" font-family="Times,serif" font-size="14.00">Hash</text>
</g>
<!-- Xpd&#45;&#45;Hash -->
<g id="edge6" class="edge">
<title>Xpd&#45;&#45;Hash</title>
<path fill="none" stroke="black" d="M38.12,-73.12C46.14,-61.66 56.92,-46.26 64.93,-34.82"/>
</g>
<!-- Key -->
<g id="node8" class="node">
<title>Key</title>
<ellipse fill="none" stroke="black" cx="204" cy="-18" rx="27" ry="18"/>
<text text-anchor="middle" x="204" y="-12.95" font-family="Times,serif" font-size="14.00">Key</text>
</g>
<!-- Xpd&#45;&#45;Key -->
<g id="edge7" class="edge">
<title>Xpd&#45;&#45;Key</title>
<path fill="none" stroke="black" d="M48.19,-78.64C53.02,-76.38 58.16,-74.05 63,-72 103.7,-54.77 152.11,-37.19 180.32,-27.23"/>
</g>
<!-- Log&#45;&#45;Parameters -->
<g id="edge9" class="edge">
<title>Log&#45;&#45;Parameters</title>
<path fill="none" stroke="black" d="M124,-143.7C124,-132.85 124,-118.92 124,-108.1"/>
</g>
<!-- Log&#45;&#45;Key -->
<g id="edge8" class="edge">
<title>Log&#45;&#45;Key</title>
<path fill="none" stroke="black" d="M143.5,-149.04C157.22,-139.59 174.88,-125.16 185,-108 198.24,-85.55 202.31,-55.06 203.52,-36.23"/>
</g>
<!-- Sample&#45;&#45;Key -->
<g id="edge10" class="edge">
<title>Sample&#45;&#45;Key</title>
<path fill="none" stroke="black" d="M255.8,-73.12C244.37,-61.18 228.84,-44.95 217.78,-33.39"/>
</g>
<!-- Parameters&#45;&#45;Hash -->
<g id="edge11" class="edge">
<title>Parameters&#45;&#45;Hash</title>
<path fill="none" stroke="black" d="M112.38,-72.05C104.61,-60.73 94.46,-45.92 86.85,-34.83"/>
</g>
</g>
</svg>
