<?xml version="1.0" encoding="UTF-8" standalone="no"?>
<!DOCTYPE svg PUBLIC "-//W3C//DTD SVG 1.1//EN"
 "http://www.w3.org/Graphics/SVG/1.1/DTD/svg11.dtd">
<!-- Generated by graphviz version 12.2.1 (20241206.2353)
 -->
<!-- Pages: 1 -->
<svg width="321pt" height="404pt"
 viewBox="0.00 0.00 320.92 404.00" xmlns="http://www.w3.org/2000/svg" xmlns:xlink="http://www.w3.org/1999/xlink">
<g id="graph0" class="graph" transform="scale(1 1) rotate(0) translate(4 400)">
<polygon fill="white" stroke="none" points="-4,4 -4,-400 316.92,-400 316.92,4 -4,4"/>
<!-- adversary -->
<g id="node1" class="node">
<title>adversary</title>
<ellipse fill="none" stroke="black" cx="201.07" cy="-378" rx="46.75" ry="18"/>
<text text-anchor="middle" x="201.07" y="-372.95" font-family="Times,serif" font-size="14.00">adversary</text>
</g>
<!-- Check -->
<g id="node2" class="node">
<title>Check</title>
<ellipse fill="none" stroke="black" cx="234.07" cy="-306" rx="34.46" ry="18"/>
<text text-anchor="middle" x="234.07" y="-300.95" font-family="Times,serif" font-size="14.00">Check</text>
</g>
<!-- adversary&#45;&#45;Check -->
<g id="edge1" class="edge">
<title>adversary&#45;&#45;Check</title>
<path fill="none" stroke="black" d="M209.06,-360.05C214.24,-349.05 220.98,-334.76 226.15,-323.79"/>
</g>
<!-- Xtr -->
<g id="node3" class="node">
<title>Xtr</title>
<ellipse fill="none" stroke="black" cx="165.07" cy="-234" rx="27" ry="18"/>
<text text-anchor="middle" x="165.07" y="-228.95" font-family="Times,serif" font-size="14.00">Xtr</text>
</g>
<!-- adversary&#45;&#45;Xtr -->
<g id="edge2" class="edge">
<title>adversary&#45;&#45;Xtr</title>
<path fill="none" stroke="black" d="M196.65,-359.59C189.71,-332.19 176.31,-279.32 169.41,-252.11"/>
</g>
<!-- Xpd -->
<g id="node4" class="node">
<title>Xpd</title>
<ellipse fill="none" stroke="black" cx="251.07" cy="-234" rx="27" ry="18"/>
<text text-anchor="middle" x="251.07" y="-228.95" font-family="Times,serif" font-size="14.00">Xpd</text>
</g>
<!-- Check&#45;&#45;Xpd -->
<g id="edge3" class="edge">
<title>Check&#45;&#45;Xpd</title>
<path fill="none" stroke="black" d="M238.27,-287.7C240.91,-276.85 244.29,-262.92 246.91,-252.1"/>
</g>
<!-- Names -->
<g id="node5" class="node">
<title>Names</title>
<ellipse fill="none" stroke="black" cx="201.07" cy="-162" rx="37.02" ry="18"/>
<text text-anchor="middle" x="201.07" y="-156.95" font-family="Times,serif" font-size="14.00">Names</text>
</g>
<!-- Xtr&#45;&#45;Names -->
<g id="edge4" class="edge">
<title>Xtr&#45;&#45;Names</title>
<path fill="none" stroke="black" d="M173.42,-216.76C179.15,-205.62 186.74,-190.87 192.51,-179.63"/>
</g>
<!-- Parameters -->
<g id="node6" class="node">
<title>Parameters</title>
<ellipse fill="none" stroke="black" cx="148.07" cy="-90" rx="52.38" ry="18"/>
<text text-anchor="middle" x="148.07" y="-84.95" font-family="Times,serif" font-size="14.00">Parameters</text>
</g>
<!-- Xtr&#45;&#45;Parameters -->
<g id="edge5" class="edge">
<title>Xtr&#45;&#45;Parameters</title>
<path fill="none" stroke="black" d="M161.35,-215.89C159.23,-205.54 156.68,-192.07 155.07,-180 151.77,-155.27 149.85,-126.44 148.88,-108.45"/>
</g>
<!-- Sample -->
<g id="node7" class="node">
<title>Sample</title>
<ellipse fill="none" stroke="black" cx="39.07" cy="-90" rx="39.07" ry="18"/>
<text text-anchor="middle" x="39.07" y="-84.95" font-family="Times,serif" font-size="14.00">Sample</text>
</g>
<!-- Xtr&#45;&#45;Sample -->
<g id="edge6" class="edge">
<title>Xtr&#45;&#45;Sample</title>
<path fill="none" stroke="black" d="M151.82,-218.07C127.94,-191.16 77.86,-134.72 53.29,-107.02"/>
</g>
<!-- Xpd&#45;&#45;Names -->
<g id="edge8" class="edge">
<title>Xpd&#45;&#45;Names</title>
<path fill="none" stroke="black" d="M239.97,-217.46C231.92,-206.19 221.04,-190.96 212.83,-179.47"/>
</g>
<!-- Key -->
<g id="node8" class="node">
<title>Key</title>
<ellipse fill="none" stroke="black" cx="188.07" cy="-18" rx="27" ry="18"/>
<text text-anchor="middle" x="188.07" y="-12.95" font-family="Times,serif" font-size="14.00">Key</text>
</g>
<!-- Xpd&#45;&#45;Key -->
<g id="edge7" class="edge">
<title>Xpd&#45;&#45;Key</title>
<path fill="none" stroke="black" d="M251.63,-215.79C251.91,-197.75 251.48,-168.66 247.07,-144 241.15,-110.93 238.77,-102.21 224.07,-72 217.55,-58.6 207.99,-44.7 200.36,-34.51"/>
</g>
<!-- Hash -->
<g id="node9" class="node">
<title>Hash</title>
<ellipse fill="none" stroke="black" cx="283.07" cy="-18" rx="29.86" ry="18"/>
<text text-anchor="middle" x="283.07" y="-12.95" font-family="Times,serif" font-size="14.00">Hash</text>
</g>
<!-- Xpd&#45;&#45;Hash -->
<g id="edge9" class="edge">
<title>Xpd&#45;&#45;Hash</title>
<path fill="none" stroke="black" d="M262.39,-217.16C268.91,-207.05 276.51,-193.38 280.07,-180 293.56,-129.2 288.85,-66.19 285.4,-36.29"/>
</g>
<!-- Names&#45;&#45;Parameters -->
<g id="edge11" class="edge">
<title>Names&#45;&#45;Parameters</title>
<path fill="none" stroke="black" d="M188.78,-144.76C180.34,-133.62 169.17,-118.87 160.66,-107.63"/>
</g>
<!-- Names&#45;&#45;Key -->
<g id="edge10" class="edge">
<title>Names&#45;&#45;Key</title>
<path fill="none" stroke="black" d="M205.42,-143.8C209.33,-125.77 213.78,-96.69 209.07,-72 206.62,-59.17 201.11,-45.48 196.35,-35.23"/>
</g>
<!-- Parameters&#45;&#45;Key -->
<g id="edge12" class="edge">
<title>Parameters&#45;&#45;Key</title>
<path fill="none" stroke="black" d="M157.75,-72.05C164.13,-60.89 172.44,-46.34 178.75,-35.31"/>
</g>
<!-- Parameters&#45;&#45;Hash -->
<g id="edge13" class="edge">
<title>Parameters&#45;&#45;Hash</title>
<path fill="none" stroke="black" d="M176.04,-74.5C201.22,-61.44 237.72,-42.51 260.92,-30.48"/>
</g>
<!-- Sample&#45;&#45;Key -->
<g id="edge14" class="edge">
<title>Sample&#45;&#45;Key</title>
<path fill="none" stroke="black" d="M65.71,-76.49C94.5,-62.96 139.84,-41.66 166.49,-29.14"/>
</g>
</g>
</svg>
