<?xml version="1.0" encoding="UTF-8" standalone="no"?>
<!DOCTYPE svg PUBLIC "-//W3C//DTD SVG 1.1//EN"
 "http://www.w3.org/Graphics/SVG/1.1/DTD/svg11.dtd">
<!-- Generated by graphviz version 12.2.1 (20241206.2353)
 -->
<!-- Pages: 1 -->
<svg width="803pt" height="548pt"
 viewBox="0.00 0.00 803.00 548.00" xmlns="http://www.w3.org/2000/svg" xmlns:xlink="http://www.w3.org/1999/xlink">
<g id="graph0" class="graph" transform="scale(1 1) rotate(0) translate(4 544)">
<polygon fill="white" stroke="none" points="-4,4 -4,-544 799,-544 799,4 -4,4"/>
<!-- adversary -->
<g id="node1" class="node">
<title>adversary</title>
<ellipse fill="none" stroke="black" cx="381" cy="-522" rx="46.75" ry="18"/>
<text text-anchor="middle" x="381" y="-516.95" font-family="Times,serif" font-size="14.00">adversary</text>
</g>
<!-- Map -->
<g id="node2" class="node">
<title>Map</title>
<ellipse fill="none" stroke="black" cx="412" cy="-378" rx="28.32" ry="18"/>
<text text-anchor="middle" x="412" y="-372.95" font-family="Times,serif" font-size="14.00">Map</text>
</g>
<!-- adversary&#45;&gt;Map -->
<g id="edge1" class="edge">
<title>adversary&#45;&gt;Map</title>
<path fill="none" stroke="black" d="M384.94,-503.83C387.31,-493.46 390.37,-479.98 393,-468 397.47,-447.69 402.36,-424.74 406.07,-407.23"/>
<polygon fill="black" stroke="black" points="409.47,-408.06 408.11,-397.56 402.62,-406.62 409.47,-408.06"/>
</g>
<!-- Check -->
<g id="node3" class="node">
<title>Check</title>
<ellipse fill="none" stroke="black" cx="350" cy="-450" rx="34.46" ry="18"/>
<text text-anchor="middle" x="350" y="-444.95" font-family="Times,serif" font-size="14.00">Check</text>
</g>
<!-- adversary&#45;&gt;Check -->
<g id="edge2" class="edge">
<title>adversary&#45;&gt;Check</title>
<path fill="none" stroke="black" d="M373.5,-504.05C370.07,-496.32 365.92,-486.96 362.08,-478.27"/>
<polygon fill="black" stroke="black" points="365.3,-476.9 358.05,-469.17 358.9,-479.73 365.3,-476.9"/>
</g>
<!-- MapTable -->
<g id="node4" class="node">
<title>MapTable</title>
<ellipse fill="none" stroke="black" cx="718" cy="-234" rx="49.3" ry="18"/>
<text text-anchor="middle" x="718" y="-228.95" font-family="Times,serif" font-size="14.00">MapTable</text>
</g>
<!-- Map&#45;&gt;MapTable -->
<g id="edge3" class="edge">
<title>Map&#45;&gt;MapTable</title>
<path fill="none" stroke="black" d="M434.49,-366.67C457.68,-356.01 494.89,-338.88 527,-324 579.34,-299.75 639.66,-271.61 678.28,-253.57"/>
<polygon fill="black" stroke="black" points="679.62,-256.8 687.2,-249.4 676.66,-250.46 679.62,-256.8"/>
</g>
<!-- Names -->
<g id="node5" class="node">
<title>Names</title>
<ellipse fill="none" stroke="black" cx="278" cy="-18" rx="37.02" ry="18"/>
<text text-anchor="middle" x="278" y="-12.95" font-family="Times,serif" font-size="14.00">Names</text>
</g>
<!-- Map&#45;&gt;Names -->
<g id="edge4" class="edge">
<title>Map&#45;&gt;Names</title>
<path fill="none" stroke="black" d="M439.54,-372.91C527.36,-359.13 795,-310.88 795,-235 795,-235 795,-235 795,-161 795,-116.87 787.13,-97.34 751,-72 683.43,-24.61 433.3,-18.91 326.67,-18.69"/>
<polygon fill="black" stroke="black" points="326.81,-15.19 316.81,-18.69 326.81,-22.19 326.81,-15.19"/>
</g>
<!-- Xtr -->
<g id="node6" class="node">
<title>Xtr</title>
<ellipse fill="none" stroke="black" cx="224" cy="-306" rx="27" ry="18"/>
<text text-anchor="middle" x="224" y="-300.95" font-family="Times,serif" font-size="14.00">Xtr</text>
</g>
<!-- Map&#45;&gt;Xtr -->
<g id="edge5" class="edge">
<title>Map&#45;&gt;Xtr</title>
<path fill="none" stroke="black" d="M387.81,-367.99C354.68,-355.66 295.06,-333.46 257.61,-319.51"/>
<polygon fill="black" stroke="black" points="259.23,-316.38 248.63,-316.17 256.78,-322.94 259.23,-316.38"/>
</g>
<!-- Xpd -->
<g id="node7" class="node">
<title>Xpd</title>
<ellipse fill="none" stroke="black" cx="453" cy="-306" rx="27" ry="18"/>
<text text-anchor="middle" x="453" y="-300.95" font-family="Times,serif" font-size="14.00">Xpd</text>
</g>
<!-- Map&#45;&gt;Xpd -->
<g id="edge6" class="edge">
<title>Map&#45;&gt;Xpd</title>
<path fill="none" stroke="black" d="M421.51,-360.76C426.37,-352.46 432.41,-342.15 437.89,-332.79"/>
<polygon fill="black" stroke="black" points="440.74,-334.85 442.78,-324.45 434.7,-331.31 440.74,-334.85"/>
</g>
<!-- DH -->
<g id="node8" class="node">
<title>DH</title>
<ellipse fill="none" stroke="black" cx="152" cy="-306" rx="27" ry="18"/>
<text text-anchor="middle" x="152" y="-300.95" font-family="Times,serif" font-size="14.00">DH</text>
</g>
<!-- Map&#45;&gt;DH -->
<g id="edge7" class="edge">
<title>Map&#45;&gt;DH</title>
<path fill="none" stroke="black" d="M384.58,-372.42C341.83,-364.86 257.02,-348.16 188,-324 186.45,-323.46 184.88,-322.87 183.3,-322.25"/>
<polygon fill="black" stroke="black" points="184.97,-319.16 174.4,-318.42 182.2,-325.59 184.97,-319.16"/>
</g>
<!-- Key -->
<g id="node9" class="node">
<title>Key</title>
<ellipse fill="none" stroke="black" cx="331" cy="-234" rx="27" ry="18"/>
<text text-anchor="middle" x="331" y="-228.95" font-family="Times,serif" font-size="14.00">Key</text>
</g>
<!-- Map&#45;&gt;Key -->
<g id="edge8" class="edge">
<title>Map&#45;&gt;Key</title>
<path fill="none" stroke="black" d="M402.71,-360.71C388.79,-336.32 362.4,-290.05 345.81,-260.97"/>
<polygon fill="black" stroke="black" points="348.93,-259.37 340.93,-252.41 342.85,-262.83 348.93,-259.37"/>
</g>
<!-- Labels -->
<g id="node10" class="node">
<title>Labels</title>
<ellipse fill="none" stroke="black" cx="615" cy="-234" rx="35.49" ry="18"/>
<text text-anchor="middle" x="615" y="-228.95" font-family="Times,serif" font-size="14.00">Labels</text>
</g>
<!-- Map&#45;&gt;Labels -->
<g id="edge9" class="edge">
<title>Map&#45;&gt;Labels</title>
<path fill="none" stroke="black" d="M430.72,-364.21C446.33,-353.52 469.17,-337.83 489,-324 522.31,-300.77 560.36,-273.84 585.86,-255.74"/>
<polygon fill="black" stroke="black" points="587.62,-258.78 593.74,-250.13 583.56,-253.07 587.62,-258.78"/>
</g>
<!-- Check&#45;&gt;Map -->
<g id="edge11" class="edge">
<title>Check&#45;&gt;Map</title>
<path fill="none" stroke="black" d="M364.07,-433.12C372.14,-424.01 382.41,-412.4 391.38,-402.28"/>
<polygon fill="black" stroke="black" points="393.82,-404.8 397.83,-395 388.58,-400.16 393.82,-404.8"/>
</g>
<!-- Check&#45;&gt;Names -->
<g id="edge10" class="edge">
<title>Check&#45;&gt;Names</title>
<path fill="none" stroke="black" d="M317.7,-443.09C231.05,-426.32 0,-375.2 0,-307 0,-307 0,-307 0,-161 0,-58.98 150.31,-30.22 229.88,-22.14"/>
<polygon fill="black" stroke="black" points="229.95,-25.65 239.58,-21.23 229.29,-18.68 229.95,-25.65"/>
</g>
<!-- MapTable&#45;&gt;Names -->
<g id="edge12" class="edge">
<title>MapTable&#45;&gt;Names</title>
<path fill="none" stroke="black" d="M726.2,-215.89C740.43,-183.39 764.93,-112.4 729,-72 702.56,-42.27 437.32,-26.47 326.38,-21.12"/>
<polygon fill="black" stroke="black" points="326.55,-17.62 316.4,-20.65 326.22,-24.61 326.55,-17.62"/>
</g>
<!-- Handles -->
<g id="node11" class="node">
<title>Handles</title>
<ellipse fill="none" stroke="black" cx="563" cy="-162" rx="41.12" ry="18"/>
<text text-anchor="middle" x="563" y="-156.95" font-family="Times,serif" font-size="14.00">Handles</text>
</g>
<!-- MapTable&#45;&gt;Handles -->
<g id="edge13" class="edge">
<title>MapTable&#45;&gt;Handles</title>
<path fill="none" stroke="black" d="M687.75,-219.34C662.94,-208.13 627.68,-192.21 600.97,-180.15"/>
<polygon fill="black" stroke="black" points="602.77,-177.12 592.21,-176.19 599.89,-183.5 602.77,-177.12"/>
</g>
<!-- Xtr&#45;&gt;Names -->
<g id="edge14" class="edge">
<title>Xtr&#45;&gt;Names</title>
<path fill="none" stroke="black" d="M202.79,-294.68C197.96,-292.41 192.83,-290.07 188,-288 147.27,-270.53 120.05,-288.56 95,-252 85.96,-238.8 92.05,-231.73 95,-216 101.33,-182.25 103.07,-171.96 123,-144 151.74,-103.69 169.36,-102.95 208,-72 221.27,-61.37 236.27,-49.94 248.97,-40.42"/>
<polygon fill="black" stroke="black" points="251.03,-43.25 256.95,-34.47 246.84,-37.64 251.03,-43.25"/>
</g>
<!-- Xtr&#45;&gt;Key -->
<g id="edge15" class="edge">
<title>Xtr&#45;&gt;Key</title>
<path fill="none" stroke="black" d="M242.64,-292.81C259.18,-281.98 283.61,-266 302.59,-253.59"/>
<polygon fill="black" stroke="black" points="304.5,-256.52 310.95,-248.12 300.67,-250.66 304.5,-256.52"/>
</g>
<!-- xtr0 -->
<g id="node12" class="node">
<title>xtr0</title>
<ellipse fill="none" stroke="black" cx="131" cy="-234" rx="27" ry="18"/>
<text text-anchor="middle" x="131" y="-228.95" font-family="Times,serif" font-size="14.00">xtr0</text>
</g>
<!-- Xtr&#45;&gt;xtr0 -->
<g id="edge16" class="edge">
<title>Xtr&#45;&gt;xtr0</title>
<path fill="none" stroke="black" d="M206.51,-291.83C192.61,-281.37 172.95,-266.58 157.18,-254.7"/>
<polygon fill="black" stroke="black" points="159.72,-252.24 149.62,-249.02 155.51,-257.83 159.72,-252.24"/>
</g>
<!-- Sample -->
<g id="node13" class="node">
<title>Sample</title>
<ellipse fill="none" stroke="black" cx="181" cy="-162" rx="39.07" ry="18"/>
<text text-anchor="middle" x="181" y="-156.95" font-family="Times,serif" font-size="14.00">Sample</text>
</g>
<!-- Xtr&#45;&gt;Sample -->
<g id="edge17" class="edge">
<title>Xtr&#45;&gt;Sample</title>
<path fill="none" stroke="black" d="M219.81,-287.82C215.31,-269.81 207.76,-240.74 200,-216 197.42,-207.76 194.35,-198.89 191.45,-190.81"/>
<polygon fill="black" stroke="black" points="194.76,-189.68 188.03,-181.49 188.19,-192.08 194.76,-189.68"/>
</g>
<!-- Parameters -->
<g id="node14" class="node">
<title>Parameters</title>
<ellipse fill="none" stroke="black" cx="278" cy="-90" rx="52.38" ry="18"/>
<text text-anchor="middle" x="278" y="-84.95" font-family="Times,serif" font-size="14.00">Parameters</text>
</g>
<!-- Xtr&#45;&gt;Parameters -->
<g id="edge18" class="edge">
<title>Xtr&#45;&gt;Parameters</title>
<path fill="none" stroke="black" d="M214.77,-288.63C204.15,-270.3 185.75,-240 167,-216 153.45,-198.66 141.13,-200.45 133,-180 127.09,-165.13 123.83,-157.11 133,-144 151.88,-117 186.05,-103.71 216.48,-97.19"/>
<polygon fill="black" stroke="black" points="216.84,-100.68 226,-95.36 215.52,-93.81 216.84,-100.68"/>
</g>
<!-- Xpd&#45;&gt;Names -->
<g id="edge20" class="edge">
<title>Xpd&#45;&gt;Names</title>
<path fill="none" stroke="black" d="M472.73,-293.26C489.34,-283.08 513.44,-267.55 533,-252 551.21,-237.52 550.8,-227.55 571,-216 621.19,-187.3 661.23,-226.19 696,-180 705.62,-167.22 705.56,-156.83 696,-144 651.01,-83.59 423.66,-41.6 324.43,-25.87"/>
<polygon fill="black" stroke="black" points="325.18,-22.45 314.76,-24.36 324.1,-29.36 325.18,-22.45"/>
</g>
<!-- Xpd&#45;&gt;Key -->
<g id="edge22" class="edge">
<title>Xpd&#45;&gt;Key</title>
<path fill="none" stroke="black" d="M432.85,-293.44C413.22,-282.18 383.14,-264.92 360.76,-252.07"/>
<polygon fill="black" stroke="black" points="362.5,-249.04 352.08,-247.1 359.02,-255.11 362.5,-249.04"/>
</g>
<!-- Xpd&#45;&gt;Labels -->
<g id="edge23" class="edge">
<title>Xpd&#45;&gt;Labels</title>
<path fill="none" stroke="black" d="M475.19,-295.41C501.73,-283.94 546.57,-264.57 578.3,-250.86"/>
<polygon fill="black" stroke="black" points="579.34,-254.22 587.13,-247.04 576.56,-247.8 579.34,-254.22"/>
</g>
<!-- Hash -->
<g id="node15" class="node">
<title>Hash</title>
<ellipse fill="none" stroke="black" cx="494" cy="-234" rx="29.86" ry="18"/>
<text text-anchor="middle" x="494" y="-228.95" font-family="Times,serif" font-size="14.00">Hash</text>
</g>
<!-- Xpd&#45;&gt;Hash -->
<g id="edge19" class="edge">
<title>Xpd&#45;&gt;Hash</title>
<path fill="none" stroke="black" d="M462.51,-288.76C467.37,-280.46 473.41,-270.15 478.89,-260.79"/>
<polygon fill="black" stroke="black" points="481.74,-262.85 483.78,-252.45 475.7,-259.31 481.74,-262.85"/>
</g>
<!-- xpd0 -->
<g id="node16" class="node">
<title>xpd0</title>
<ellipse fill="none" stroke="black" cx="417" cy="-234" rx="29.34" ry="18"/>
<text text-anchor="middle" x="417" y="-228.95" font-family="Times,serif" font-size="14.00">xpd0</text>
</g>
<!-- Xpd&#45;&gt;xpd0 -->
<g id="edge21" class="edge">
<title>Xpd&#45;&gt;xpd0</title>
<path fill="none" stroke="black" d="M444.65,-288.76C440.53,-280.75 435.45,-270.88 430.78,-261.79"/>
<polygon fill="black" stroke="black" points="433.93,-260.27 426.25,-252.98 427.71,-263.47 433.93,-260.27"/>
</g>
<!-- DH&#45;&gt;Names -->
<g id="edge24" class="edge">
<title>DH&#45;&gt;Names</title>
<path fill="none" stroke="black" d="M130.73,-294.59C115.16,-285.67 95.21,-271.21 86,-252 74.96,-228.98 96.74,-149.11 99,-144 115.25,-107.16 122.22,-96.73 154,-72 178.14,-53.22 209.95,-39.8 235.3,-31.16"/>
<polygon fill="black" stroke="black" points="236.22,-34.54 244.64,-28.11 234.05,-27.89 236.22,-34.54"/>
</g>
<!-- DH&#45;&gt;Key -->
<g id="edge25" class="edge">
<title>DH&#45;&gt;Key</title>
<path fill="none" stroke="black" d="M173.18,-294.63C178.02,-292.36 183.16,-290.04 188,-288 224.52,-272.64 267.21,-257.13 296.37,-246.89"/>
<polygon fill="black" stroke="black" points="297.51,-250.2 305.79,-243.6 295.2,-243.59 297.51,-250.2"/>
</g>
<!-- Key&#45;&gt;Names -->
<g id="edge26" class="edge">
<title>Key&#45;&gt;Names</title>
<path fill="none" stroke="black" d="M336.72,-216.06C345.97,-185.63 361.06,-120.38 339,-72 332.95,-58.74 321.77,-47.51 310.61,-38.85"/>
<polygon fill="black" stroke="black" points="312.74,-36.07 302.58,-33.07 308.65,-41.76 312.74,-36.07"/>
</g>
<!-- Key&#45;&gt;Handles -->
<g id="edge27" class="edge">
<title>Key&#45;&gt;Handles</title>
<path fill="none" stroke="black" d="M354.34,-224.42C362.15,-221.63 370.92,-218.59 379,-216 425.9,-200.95 480.15,-185.57 517.53,-175.28"/>
<polygon fill="black" stroke="black" points="518.38,-178.67 527.1,-172.66 516.53,-171.92 518.38,-178.67"/>
</g>
<!-- Key&#45;&gt;Sample -->
<g id="edge31" class="edge">
<title>Key&#45;&gt;Sample</title>
<path fill="none" stroke="black" d="M309.19,-222.82C285.41,-211.73 246.94,-193.77 218.34,-180.43"/>
<polygon fill="black" stroke="black" points="219.83,-177.26 209.28,-176.2 216.87,-183.6 219.83,-177.26"/>
</g>
<!-- Key&#45;&gt;Parameters -->
<g id="edge28" class="edge">
<title>Key&#45;&gt;Parameters</title>
<path fill="none" stroke="black" d="M325.78,-216.12C320.1,-198.1 310.54,-168.81 301,-144 297.78,-135.63 294.01,-126.65 290.46,-118.5"/>
<polygon fill="black" stroke="black" points="293.69,-117.15 286.44,-109.42 287.28,-119.98 293.69,-117.15"/>
</g>
<!-- Log -->
<g id="node17" class="node">
<title>Log</title>
<ellipse fill="none" stroke="black" cx="265" cy="-162" rx="27" ry="18"/>
<text text-anchor="middle" x="265" y="-156.95" font-family="Times,serif" font-size="14.00">Log</text>
</g>
<!-- Key&#45;&gt;Log -->
<g id="edge29" class="edge">
<title>Key&#45;&gt;Log</title>
<path fill="none" stroke="black" d="M317,-218.15C308.25,-208.87 296.8,-196.73 286.87,-186.19"/>
<polygon fill="black" stroke="black" points="289.42,-183.8 280.02,-178.93 284.33,-188.6 289.42,-183.8"/>
</g>
<!-- Helpers -->
<g id="node18" class="node">
<title>Helpers</title>
<ellipse fill="none" stroke="black" cx="426" cy="-162" rx="39.58" ry="18"/>
<text text-anchor="middle" x="426" y="-156.95" font-family="Times,serif" font-size="14.00">Helpers</text>
</g>
<!-- Key&#45;&gt;Helpers -->
<g id="edge30" class="edge">
<title>Key&#45;&gt;Helpers</title>
<path fill="none" stroke="black" d="M348.42,-220.16C361.95,-210.2 380.99,-196.16 396.83,-184.49"/>
<polygon fill="black" stroke="black" points="398.53,-187.59 404.5,-178.84 394.37,-181.96 398.53,-187.59"/>
</g>
<!-- Parameters&#45;&gt;Names -->
<g id="edge32" class="edge">
<title>Parameters&#45;&gt;Names</title>
<path fill="none" stroke="black" d="M278,-71.7C278,-64.41 278,-55.73 278,-47.54"/>
<polygon fill="black" stroke="black" points="281.5,-47.62 278,-37.62 274.5,-47.62 281.5,-47.62"/>
</g>
<!-- Hash&#45;&gt;Parameters -->
<g id="edge34" class="edge">
<title>Hash&#45;&gt;Parameters</title>
<path fill="none" stroke="black" d="M495.28,-215.86C495.77,-195.95 493.38,-163.37 475,-144 440.98,-108.15 385.53,-95.64 342.1,-91.67"/>
<polygon fill="black" stroke="black" points="342.52,-88.19 332.28,-90.91 341.99,-95.17 342.52,-88.19"/>
</g>
<!-- hash0 -->
<g id="node19" class="node">
<title>hash0</title>
<ellipse fill="none" stroke="black" cx="655" cy="-162" rx="32.41" ry="18"/>
<text text-anchor="middle" x="655" y="-156.95" font-family="Times,serif" font-size="14.00">hash0</text>
</g>
<!-- Hash&#45;&gt;hash0 -->
<g id="edge33" class="edge">
<title>Hash&#45;&gt;hash0</title>
<path fill="none" stroke="black" d="M517.76,-222.67C544.67,-210.97 588.81,-191.78 619.74,-178.33"/>
<polygon fill="black" stroke="black" points="620.92,-181.63 628.7,-174.44 618.13,-175.21 620.92,-181.63"/>
</g>
<!-- xpd0&#45;&gt;Helpers -->
<g id="edge35" class="edge">
<title>xpd0&#45;&gt;Helpers</title>
<path fill="none" stroke="black" d="M419.22,-215.7C420.17,-208.32 421.3,-199.52 422.37,-191.25"/>
<polygon fill="black" stroke="black" points="425.8,-191.97 423.61,-181.61 418.86,-191.08 425.8,-191.97"/>
</g>
<!-- Log&#45;&gt;Names -->
<g id="edge37" class="edge">
<title>Log&#45;&gt;Names</title>
<path fill="none" stroke="black" d="M247.73,-147.79C236.63,-138.14 223.16,-123.98 217,-108 211.24,-93.07 210.36,-86.56 217,-72 223.05,-58.74 234.23,-47.51 245.39,-38.85"/>
<polygon fill="black" stroke="black" points="247.35,-41.76 253.42,-33.07 243.26,-36.07 247.35,-41.76"/>
</g>
<!-- Log&#45;&gt;Parameters -->
<g id="edge36" class="edge">
<title>Log&#45;&gt;Parameters</title>
<path fill="none" stroke="black" d="M268.21,-143.7C269.58,-136.32 271.22,-127.52 272.75,-119.25"/>
<polygon fill="black" stroke="black" points="276.16,-120.06 274.55,-109.59 269.28,-118.79 276.16,-120.06"/>
</g>
</g>
</svg>
