<?xml version="1.0" encoding="UTF-8" standalone="no"?>
<!DOCTYPE svg PUBLIC "-//W3C//DTD SVG 1.1//EN"
 "http://www.w3.org/Graphics/SVG/1.1/DTD/svg11.dtd">
<!-- Generated by graphviz version 12.2.1 (20241206.2353)
 -->
<!-- Pages: 1 -->
<svg width="269pt" height="332pt"
 viewBox="0.00 0.00 269.19 332.00" xmlns="http://www.w3.org/2000/svg" xmlns:xlink="http://www.w3.org/1999/xlink">
<g id="graph0" class="graph" transform="scale(1 1) rotate(0) translate(4 328)">
<polygon fill="white" stroke="none" points="-4,4 -4,-328 265.19,-328 265.19,4 -4,4"/>
<!-- Map -->
<g id="node1" class="node">
<title>Map</title>
<ellipse fill="none" stroke="black" cx="121.34" cy="-306" rx="28.32" ry="18"/>
<text text-anchor="middle" x="121.34" y="-300.95" font-family="Times,serif" font-size="14.00">Map</text>
</g>
<!-- Xtr -->
<g id="node2" class="node">
<title>Xtr</title>
<ellipse fill="none" stroke="black" cx="85.34" cy="-234" rx="27" ry="18"/>
<text text-anchor="middle" x="85.34" y="-228.95" font-family="Times,serif" font-size="14.00">Xtr</text>
</g>
<!-- Map&#45;&#45;Xtr -->
<g id="edge1" class="edge">
<title>Map&#45;&#45;Xtr</title>
<path fill="none" stroke="black" d="M112.81,-288.41C107.07,-277.25 99.54,-262.6 93.81,-251.47"/>
</g>
<!-- Xpd -->
<g id="node3" class="node">
<title>Xpd</title>
<ellipse fill="none" stroke="black" cx="163.34" cy="-234" rx="27" ry="18"/>
<text text-anchor="middle" x="163.34" y="-228.95" font-family="Times,serif" font-size="14.00">Xpd</text>
</g>
<!-- Map&#45;&#45;Xpd -->
<g id="edge2" class="edge">
<title>Map&#45;&#45;Xpd</title>
<path fill="none" stroke="black" d="M131.08,-288.76C137.87,-277.46 146.88,-262.44 153.65,-251.15"/>
</g>
<!-- Key -->
<g id="node4" class="node">
<title>Key</title>
<ellipse fill="none" stroke="black" cx="146.34" cy="-162" rx="27" ry="18"/>
<text text-anchor="middle" x="146.34" y="-156.95" font-family="Times,serif" font-size="14.00">Key</text>
</g>
<!-- Xtr&#45;&#45;Key -->
<g id="edge3" class="edge">
<title>Xtr&#45;&#45;Key</title>
<path fill="none" stroke="black" d="M98.58,-217.81C108.81,-206.07 122.9,-189.89 133.13,-178.16"/>
</g>
<!-- Parameters -->
<g id="node5" class="node">
<title>Parameters</title>
<ellipse fill="none" stroke="black" cx="70.34" cy="-90" rx="52.38" ry="18"/>
<text text-anchor="middle" x="70.34" y="-84.95" font-family="Times,serif" font-size="14.00">Parameters</text>
</g>
<!-- Xtr&#45;&#45;Parameters -->
<g id="edge5" class="edge">
<title>Xtr&#45;&#45;Parameters</title>
<path fill="none" stroke="black" d="M83.5,-215.59C80.61,-188.19 75.02,-135.32 72.15,-108.11"/>
</g>
<!-- Names -->
<g id="node7" class="node">
<title>Names</title>
<ellipse fill="none" stroke="black" cx="118.34" cy="-18" rx="37.02" ry="18"/>
<text text-anchor="middle" x="118.34" y="-12.95" font-family="Times,serif" font-size="14.00">Names</text>
</g>
<!-- Xtr&#45;&#45;Names -->
<g id="edge4" class="edge">
<title>Xtr&#45;&#45;Names</title>
<path fill="none" stroke="black" d="M69.48,-219.08C38.83,-190.45 -22.8,-123.36 9.34,-72 25.63,-45.96 58.8,-32.38 84.29,-25.52"/>
</g>
<!-- Xpd&#45;&#45;Key -->
<g id="edge6" class="edge">
<title>Xpd&#45;&#45;Key</title>
<path fill="none" stroke="black" d="M159.22,-216.05C156.59,-205.21 153.18,-191.18 150.53,-180.28"/>
</g>
<!-- Xpd&#45;&#45;Names -->
<g id="edge7" class="edge">
<title>Xpd&#45;&#45;Names</title>
<path fill="none" stroke="black" d="M174.31,-217.38C193.88,-187.43 230.31,-120.6 203.34,-72 191.69,-51.02 167.9,-37.25 148.45,-29.03"/>
</g>
<!-- Hash -->
<g id="node8" class="node">
<title>Hash</title>
<ellipse fill="none" stroke="black" cx="231.34" cy="-18" rx="29.86" ry="18"/>
<text text-anchor="middle" x="231.34" y="-12.95" font-family="Times,serif" font-size="14.00">Hash</text>
</g>
<!-- Xpd&#45;&#45;Hash -->
<g id="edge8" class="edge">
<title>Xpd&#45;&#45;Hash</title>
<path fill="none" stroke="black" d="M181.35,-220.37C193.47,-210.79 208.59,-196.49 216.34,-180 238.9,-131.98 236.32,-67.11 233.43,-36.44"/>
</g>
<!-- Key&#45;&#45;Parameters -->
<g id="edge9" class="edge">
<title>Key&#45;&#45;Parameters</title>
<path fill="none" stroke="black" d="M130.96,-146.83C118.55,-135.41 101.09,-119.33 88.09,-107.35"/>
</g>
<!-- DH -->
<g id="node6" class="node">
<title>DH</title>
<ellipse fill="none" stroke="black" cx="167.34" cy="-90" rx="27" ry="18"/>
<text text-anchor="middle" x="167.34" y="-84.95" font-family="Times,serif" font-size="14.00">DH</text>
</g>
<!-- Key&#45;&#45;DH -->
<g id="edge10" class="edge">
<title>Key&#45;&#45;DH</title>
<path fill="none" stroke="black" d="M151.42,-144.05C154.72,-133.05 159.01,-118.76 162.3,-107.79"/>
</g>
<!-- Parameters&#45;&#45;Names -->
<g id="edge11" class="edge">
<title>Parameters&#45;&#45;Names</title>
<path fill="none" stroke="black" d="M81.96,-72.05C89.62,-60.89 99.59,-46.34 107.16,-35.31"/>
</g>
<!-- Parameters&#45;&#45;Hash -->
<g id="edge12" class="edge">
<title>Parameters&#45;&#45;Hash</title>
<path fill="none" stroke="black" d="M101.76,-75.34C132.88,-61.81 179.81,-41.4 207.83,-29.22"/>
</g>
<!-- DH&#45;&#45;Names -->
<g id="edge13" class="edge">
<title>DH&#45;&#45;Names</title>
<path fill="none" stroke="black" d="M156.22,-73.12C148.31,-61.82 137.73,-46.7 129.75,-35.31"/>
</g>
</g>
</svg>
