<?xml version="1.0" encoding="UTF-8" standalone="no"?>
<!DOCTYPE svg PUBLIC "-//W3C//DTD SVG 1.1//EN"
 "http://www.w3.org/Graphics/SVG/1.1/DTD/svg11.dtd">
<!-- Generated by graphviz version 12.2.1 (20241206.2353)
 -->
<!-- Pages: 1 -->
<svg width="824pt" height="548pt"
 viewBox="0.00 0.00 824.30 548.00" xmlns="http://www.w3.org/2000/svg" xmlns:xlink="http://www.w3.org/1999/xlink">
<g id="graph0" class="graph" transform="scale(1 1) rotate(0) translate(4 544)">
<polygon fill="white" stroke="none" points="-4,4 -4,-544 820.3,-544 820.3,4 -4,4"/>
<!-- adversary -->
<g id="node1" class="node">
<title>adversary</title>
<ellipse fill="none" stroke="black" cx="415.3" cy="-522" rx="46.75" ry="18"/>
<text text-anchor="middle" x="415.3" y="-516.95" font-family="Times,serif" font-size="14.00">adversary</text>
</g>
<!-- Map -->
<g id="node2" class="node">
<title>Map</title>
<ellipse fill="none" stroke="black" cx="384.3" cy="-378" rx="28.32" ry="18"/>
<text text-anchor="middle" x="384.3" y="-372.95" font-family="Times,serif" font-size="14.00">Map</text>
</g>
<!-- adversary&#45;&gt;Map -->
<g id="edge1" class="edge">
<title>adversary&#45;&gt;Map</title>
<path fill="none" stroke="black" d="M411.36,-503.83C408.99,-493.46 405.94,-479.98 403.3,-468 398.84,-447.69 393.94,-424.74 390.24,-407.23"/>
<polygon fill="black" stroke="black" points="393.69,-406.62 388.2,-397.56 386.84,-408.06 393.69,-406.62"/>
</g>
<!-- Check -->
<g id="node3" class="node">
<title>Check</title>
<ellipse fill="none" stroke="black" cx="446.3" cy="-450" rx="34.46" ry="18"/>
<text text-anchor="middle" x="446.3" y="-444.95" font-family="Times,serif" font-size="14.00">Check</text>
</g>
<!-- adversary&#45;&gt;Check -->
<g id="edge2" class="edge">
<title>adversary&#45;&gt;Check</title>
<path fill="none" stroke="black" d="M422.81,-504.05C426.24,-496.32 430.38,-486.96 434.23,-478.27"/>
<polygon fill="black" stroke="black" points="437.41,-479.73 438.26,-469.17 431.01,-476.9 437.41,-479.73"/>
</g>
<!-- Key -->
<g id="node4" class="node">
<title>Key</title>
<ellipse fill="none" stroke="black" cx="257.3" cy="-234" rx="27" ry="18"/>
<text text-anchor="middle" x="257.3" y="-228.95" font-family="Times,serif" font-size="14.00">Key</text>
</g>
<!-- Map&#45;&gt;Key -->
<g id="edge3" class="edge">
<title>Map&#45;&gt;Key</title>
<path fill="none" stroke="black" d="M370.71,-361.8C348.56,-337.03 304.52,-287.79 278.31,-258.49"/>
<polygon fill="black" stroke="black" points="281.08,-256.34 271.81,-251.22 275.86,-261 281.08,-256.34"/>
</g>
<!-- Names -->
<g id="node5" class="node">
<title>Names</title>
<ellipse fill="none" stroke="black" cx="444.3" cy="-18" rx="37.02" ry="18"/>
<text text-anchor="middle" x="444.3" y="-12.95" font-family="Times,serif" font-size="14.00">Names</text>
</g>
<!-- Map&#45;&gt;Names -->
<g id="edge4" class="edge">
<title>Map&#45;&gt;Names</title>
<path fill="none" stroke="black" d="M412.01,-373.16C501.69,-359.98 778.3,-312.98 778.3,-235 778.3,-235 778.3,-235 778.3,-161 778.3,-38.49 585.64,-20.16 492.96,-18.43"/>
<polygon fill="black" stroke="black" points="493.2,-14.93 483.16,-18.31 493.12,-21.93 493.2,-14.93"/>
</g>
<!-- MapTable -->
<g id="node6" class="node">
<title>MapTable</title>
<ellipse fill="none" stroke="black" cx="49.3" cy="-234" rx="49.3" ry="18"/>
<text text-anchor="middle" x="49.3" y="-228.95" font-family="Times,serif" font-size="14.00">MapTable</text>
</g>
<!-- Map&#45;&gt;MapTable -->
<g id="edge5" class="edge">
<title>Map&#45;&gt;MapTable</title>
<path fill="none" stroke="black" d="M356.3,-374.2C295.28,-367.68 152.61,-350.04 112.3,-324 89.26,-309.11 72.11,-282.55 61.57,-262.31"/>
<polygon fill="black" stroke="black" points="64.77,-260.88 57.21,-253.47 58.5,-263.98 64.77,-260.88"/>
</g>
<!-- DH -->
<g id="node7" class="node">
<title>DH</title>
<ellipse fill="none" stroke="black" cx="257.3" cy="-306" rx="27" ry="18"/>
<text text-anchor="middle" x="257.3" y="-300.95" font-family="Times,serif" font-size="14.00">DH</text>
</g>
<!-- Map&#45;&gt;DH -->
<g id="edge6" class="edge">
<title>Map&#45;&gt;DH</title>
<path fill="none" stroke="black" d="M363.33,-365.44C342.68,-354.06 310.93,-336.56 287.55,-323.67"/>
<polygon fill="black" stroke="black" points="289.24,-320.61 278.79,-318.84 285.86,-326.74 289.24,-320.61"/>
</g>
<!-- Labels -->
<g id="node8" class="node">
<title>Labels</title>
<ellipse fill="none" stroke="black" cx="523.3" cy="-234" rx="35.49" ry="18"/>
<text text-anchor="middle" x="523.3" y="-228.95" font-family="Times,serif" font-size="14.00">Labels</text>
</g>
<!-- Map&#45;&gt;Labels -->
<g id="edge7" class="edge">
<title>Map&#45;&gt;Labels</title>
<path fill="none" stroke="black" d="M398.92,-362.07C423.02,-337.44 471.32,-288.1 500.13,-258.68"/>
<polygon fill="black" stroke="black" points="502.49,-261.26 506.99,-251.67 497.49,-256.37 502.49,-261.26"/>
</g>
<!-- Handles -->
<g id="node9" class="node">
<title>Handles</title>
<ellipse fill="none" stroke="black" cx="95.3" cy="-162" rx="41.12" ry="18"/>
<text text-anchor="middle" x="95.3" y="-156.95" font-family="Times,serif" font-size="14.00">Handles</text>
</g>
<!-- Map&#45;&gt;Handles -->
<g id="edge8" class="edge">
<title>Map&#45;&gt;Handles</title>
<path fill="none" stroke="black" d="M356.94,-372.26C323.12,-365.49 264.72,-350.82 221.3,-324 167.85,-290.98 128.07,-226.64 108.62,-190.08"/>
<polygon fill="black" stroke="black" points="111.86,-188.74 104.15,-181.47 105.65,-191.96 111.86,-188.74"/>
</g>
<!-- Xtr -->
<g id="node10" class="node">
<title>Xtr</title>
<ellipse fill="none" stroke="black" cx="384.3" cy="-306" rx="27" ry="18"/>
<text text-anchor="middle" x="384.3" y="-300.95" font-family="Times,serif" font-size="14.00">Xtr</text>
</g>
<!-- Map&#45;&gt;Xtr -->
<g id="edge9" class="edge">
<title>Map&#45;&gt;Xtr</title>
<path fill="none" stroke="black" d="M384.3,-359.7C384.3,-352.41 384.3,-343.73 384.3,-335.54"/>
<polygon fill="black" stroke="black" points="387.8,-335.62 384.3,-325.62 380.8,-335.62 387.8,-335.62"/>
</g>
<!-- Xpd -->
<g id="node11" class="node">
<title>Xpd</title>
<ellipse fill="none" stroke="black" cx="561.3" cy="-306" rx="27" ry="18"/>
<text text-anchor="middle" x="561.3" y="-300.95" font-family="Times,serif" font-size="14.00">Xpd</text>
</g>
<!-- Map&#45;&gt;Xpd -->
<g id="edge10" class="edge">
<title>Map&#45;&gt;Xpd</title>
<path fill="none" stroke="black" d="M407.81,-367.7C438.61,-355.52 492.82,-334.08 527.89,-320.22"/>
<polygon fill="black" stroke="black" points="529.13,-323.49 537.14,-316.56 526.55,-316.98 529.13,-323.49"/>
</g>
<!-- Check&#45;&gt;Map -->
<g id="edge11" class="edge">
<title>Check&#45;&gt;Map</title>
<path fill="none" stroke="black" d="M432.24,-433.12C424.17,-424.01 413.89,-412.4 404.92,-402.28"/>
<polygon fill="black" stroke="black" points="407.72,-400.16 398.47,-395 402.48,-404.8 407.72,-400.16"/>
</g>
<!-- Check&#45;&gt;Names -->
<g id="edge12" class="edge">
<title>Check&#45;&gt;Names</title>
<path fill="none" stroke="black" d="M479.14,-443.67C569.69,-428.05 816.3,-378.9 816.3,-307 816.3,-307 816.3,-307 816.3,-161 816.3,-114.03 798.49,-97.9 759.3,-72 716.23,-43.54 569.18,-28.44 492.19,-22.32"/>
<polygon fill="black" stroke="black" points="492.66,-18.85 482.42,-21.57 492.12,-25.83 492.66,-18.85"/>
</g>
<!-- Key&#45;&gt;Names -->
<g id="edge13" class="edge">
<title>Key&#45;&gt;Names</title>
<path fill="none" stroke="black" d="M243.36,-218.27C227.98,-200.15 207.17,-168.75 221.3,-144 259.11,-77.79 346.59,-44.15 400.05,-29.19"/>
<polygon fill="black" stroke="black" points="400.7,-32.64 409.46,-26.66 398.89,-25.88 400.7,-32.64"/>
</g>
<!-- Key&#45;&gt;Handles -->
<g id="edge15" class="edge">
<title>Key&#45;&gt;Handles</title>
<path fill="none" stroke="black" d="M235.12,-223.41C209.11,-212.18 165.57,-193.36 133.97,-179.71"/>
<polygon fill="black" stroke="black" points="135.71,-176.65 125.15,-175.89 132.94,-183.07 135.71,-176.65"/>
</g>
<!-- Log -->
<g id="node12" class="node">
<title>Log</title>
<ellipse fill="none" stroke="black" cx="257.3" cy="-162" rx="27" ry="18"/>
<text text-anchor="middle" x="257.3" y="-156.95" font-family="Times,serif" font-size="14.00">Log</text>
</g>
<!-- Key&#45;&gt;Log -->
<g id="edge14" class="edge">
<title>Key&#45;&gt;Log</title>
<path fill="none" stroke="black" d="M257.3,-215.7C257.3,-208.41 257.3,-199.73 257.3,-191.54"/>
<polygon fill="black" stroke="black" points="260.8,-191.62 257.3,-181.62 253.8,-191.62 260.8,-191.62"/>
</g>
<!-- Sample -->
<g id="node13" class="node">
<title>Sample</title>
<ellipse fill="none" stroke="black" cx="379.3" cy="-162" rx="39.07" ry="18"/>
<text text-anchor="middle" x="379.3" y="-156.95" font-family="Times,serif" font-size="14.00">Sample</text>
</g>
<!-- Key&#45;&gt;Sample -->
<g id="edge16" class="edge">
<title>Key&#45;&gt;Sample</title>
<path fill="none" stroke="black" d="M277.45,-221.44C296.03,-210.78 323.97,-194.75 345.89,-182.17"/>
<polygon fill="black" stroke="black" points="347.54,-185.26 354.47,-177.25 344.06,-179.19 347.54,-185.26"/>
</g>
<!-- Parameters -->
<g id="node14" class="node">
<title>Parameters</title>
<ellipse fill="none" stroke="black" cx="404.3" cy="-90" rx="52.38" ry="18"/>
<text text-anchor="middle" x="404.3" y="-84.95" font-family="Times,serif" font-size="14.00">Parameters</text>
</g>
<!-- Key&#45;&gt;Parameters -->
<g id="edge17" class="edge">
<title>Key&#45;&gt;Parameters</title>
<path fill="none" stroke="black" d="M268.55,-217.19C282.21,-198.56 306.52,-167.21 331.3,-144 343.33,-132.74 357.8,-121.78 370.67,-112.79"/>
<polygon fill="black" stroke="black" points="372.61,-115.7 378.89,-107.17 368.66,-109.92 372.61,-115.7"/>
</g>
<!-- MapTable&#45;&gt;Names -->
<g id="edge19" class="edge">
<title>MapTable&#45;&gt;Names</title>
<path fill="none" stroke="black" d="M43.64,-215.82C38.51,-197.02 33.41,-166.58 45.3,-144 71.68,-93.94 97.96,-93.5 150.3,-72 232.61,-38.19 336.64,-25.9 396.31,-21.46"/>
<polygon fill="black" stroke="black" points="396.39,-24.96 406.13,-20.78 395.91,-17.98 396.39,-24.96"/>
</g>
<!-- MapTable&#45;&gt;Handles -->
<g id="edge18" class="edge">
<title>MapTable&#45;&gt;Handles</title>
<path fill="none" stroke="black" d="M60.44,-216.05C65.69,-208.06 72.09,-198.33 77.96,-189.4"/>
<polygon fill="black" stroke="black" points="80.87,-191.33 83.44,-181.05 75.02,-187.49 80.87,-191.33"/>
</g>
<!-- DH&#45;&gt;Key -->
<g id="edge20" class="edge">
<title>DH&#45;&gt;Key</title>
<path fill="none" stroke="black" d="M257.3,-287.7C257.3,-280.41 257.3,-271.73 257.3,-263.54"/>
<polygon fill="black" stroke="black" points="260.8,-263.62 257.3,-253.62 253.8,-263.62 260.8,-263.62"/>
</g>
<!-- DH&#45;&gt;Names -->
<g id="edge21" class="edge">
<title>DH&#45;&gt;Names</title>
<path fill="none" stroke="black" d="M244.15,-289.86C236.18,-279.81 226.56,-265.95 221.3,-252 192.79,-176.37 184.99,-123.49 247.3,-72 289.45,-37.18 352.38,-25.08 395.72,-20.96"/>
<polygon fill="black" stroke="black" points="395.93,-24.46 405.61,-20.14 395.35,-17.48 395.93,-24.46"/>
</g>
<!-- Xtr&#45;&gt;Key -->
<g id="edge23" class="edge">
<title>Xtr&#45;&gt;Key</title>
<path fill="none" stroke="black" d="M363.9,-293.75C343.25,-282.37 311.1,-264.65 287.51,-251.65"/>
<polygon fill="black" stroke="black" points="289.43,-248.71 278.98,-246.95 286.05,-254.84 289.43,-248.71"/>
</g>
<!-- Xtr&#45;&gt;Names -->
<g id="edge22" class="edge">
<title>Xtr&#45;&gt;Names</title>
<path fill="none" stroke="black" d="M400.07,-291.2C410.44,-281.29 423.49,-267.06 431.3,-252 461.59,-193.63 457.7,-173.32 465.3,-108 467.15,-92.11 468.3,-87.72 465.3,-72 463.65,-63.31 460.59,-54.23 457.3,-46.09"/>
<polygon fill="black" stroke="black" points="460.59,-44.87 453.41,-37.08 454.17,-47.65 460.59,-44.87"/>
</g>
<!-- Xtr&#45;&gt;Sample -->
<g id="edge25" class="edge">
<title>Xtr&#45;&gt;Sample</title>
<path fill="none" stroke="black" d="M383.69,-287.59C382.85,-263.61 381.32,-220.14 380.3,-191.42"/>
<polygon fill="black" stroke="black" points="383.81,-191.49 379.96,-181.62 376.81,-191.74 383.81,-191.49"/>
</g>
<!-- Xtr&#45;&gt;Parameters -->
<g id="edge24" class="edge">
<title>Xtr&#45;&gt;Parameters</title>
<path fill="none" stroke="black" d="M393.88,-288.69C409.69,-259.78 438.42,-197.54 427.3,-144 425.51,-135.36 422.23,-126.39 418.7,-118.35"/>
<polygon fill="black" stroke="black" points="421.93,-116.99 414.49,-109.44 415.6,-119.98 421.93,-116.99"/>
</g>
<!-- xtr0 -->
<g id="node15" class="node">
<title>xtr0</title>
<ellipse fill="none" stroke="black" cx="329.3" cy="-234" rx="27" ry="18"/>
<text text-anchor="middle" x="329.3" y="-228.95" font-family="Times,serif" font-size="14.00">xtr0</text>
</g>
<!-- Xtr&#45;&gt;xtr0 -->
<g id="edge26" class="edge">
<title>Xtr&#45;&gt;xtr0</title>
<path fill="none" stroke="black" d="M372.1,-289.46C365.19,-280.67 356.4,-269.48 348.58,-259.53"/>
<polygon fill="black" stroke="black" points="351.34,-257.38 342.41,-251.68 345.84,-261.71 351.34,-257.38"/>
</g>
<!-- Xpd&#45;&gt;Key -->
<g id="edge27" class="edge">
<title>Xpd&#45;&gt;Key</title>
<path fill="none" stroke="black" d="M534.5,-301.92C485.62,-295.81 379.12,-280.27 293.3,-252 291.75,-251.49 290.17,-250.92 288.58,-250.32"/>
<polygon fill="black" stroke="black" points="290.24,-247.22 279.66,-246.55 287.51,-253.67 290.24,-247.22"/>
</g>
<!-- Xpd&#45;&gt;Names -->
<g id="edge28" class="edge">
<title>Xpd&#45;&gt;Names</title>
<path fill="none" stroke="black" d="M565.79,-287.92C569.79,-269.75 574.08,-240.32 567.3,-216 548.03,-146.83 496.05,-78.56 466.19,-43.41"/>
<polygon fill="black" stroke="black" points="468.93,-41.23 459.75,-35.95 463.64,-45.81 468.93,-41.23"/>
</g>
<!-- Xpd&#45;&gt;Labels -->
<g id="edge31" class="edge">
<title>Xpd&#45;&gt;Labels</title>
<path fill="none" stroke="black" d="M552.49,-288.76C548.09,-280.67 542.66,-270.66 537.68,-261.49"/>
<polygon fill="black" stroke="black" points="540.9,-260.08 533.06,-252.96 534.75,-263.42 540.9,-260.08"/>
</g>
<!-- xpd0 -->
<g id="node16" class="node">
<title>xpd0</title>
<ellipse fill="none" stroke="black" cx="643.3" cy="-234" rx="29.34" ry="18"/>
<text text-anchor="middle" x="643.3" y="-228.95" font-family="Times,serif" font-size="14.00">xpd0</text>
</g>
<!-- Xpd&#45;&gt;xpd0 -->
<g id="edge29" class="edge">
<title>Xpd&#45;&gt;xpd0</title>
<path fill="none" stroke="black" d="M577.5,-291.17C589.03,-281.33 604.75,-267.91 617.94,-256.66"/>
<polygon fill="black" stroke="black" points="620.09,-259.42 625.42,-250.26 615.55,-254.09 620.09,-259.42"/>
</g>
<!-- Hash -->
<g id="node17" class="node">
<title>Hash</title>
<ellipse fill="none" stroke="black" cx="720.3" cy="-234" rx="29.86" ry="18"/>
<text text-anchor="middle" x="720.3" y="-228.95" font-family="Times,serif" font-size="14.00">Hash</text>
</g>
<!-- Xpd&#45;&gt;Hash -->
<g id="edge30" class="edge">
<title>Xpd&#45;&gt;Hash</title>
<path fill="none" stroke="black" d="M583.41,-295.27C610.05,-283.54 655.1,-263.71 686.2,-250.01"/>
<polygon fill="black" stroke="black" points="687.44,-253.29 695.18,-246.06 684.62,-246.88 687.44,-253.29"/>
</g>
<!-- Log&#45;&gt;Parameters -->
<g id="edge32" class="edge">
<title>Log&#45;&gt;Parameters</title>
<path fill="none" stroke="black" d="M278.99,-150.67C301.44,-139.98 337.01,-123.04 364.53,-109.94"/>
<polygon fill="black" stroke="black" points="365.75,-113.24 373.27,-105.78 362.74,-106.92 365.75,-113.24"/>
</g>
<!-- Parameters&#45;&gt;Names -->
<g id="edge33" class="edge">
<title>Parameters&#45;&gt;Names</title>
<path fill="none" stroke="black" d="M413.99,-72.05C418.51,-64.14 424,-54.54 429.05,-45.69"/>
<polygon fill="black" stroke="black" points="432.04,-47.52 433.96,-37.1 425.96,-44.05 432.04,-47.52"/>
</g>
<!-- Hash&#45;&gt;Parameters -->
<g id="edge35" class="edge">
<title>Hash&#45;&gt;Parameters</title>
<path fill="none" stroke="black" d="M721.86,-215.58C722.63,-195.4 720.5,-162.56 701.3,-144 668.76,-112.53 544.73,-99.39 467.61,-94.18"/>
<polygon fill="black" stroke="black" points="467.84,-90.69 457.64,-93.54 467.39,-97.67 467.84,-90.69"/>
</g>
<!-- hash0 -->
<g id="node18" class="node">
<title>hash0</title>
<ellipse fill="none" stroke="black" cx="660.3" cy="-162" rx="32.41" ry="18"/>
<text text-anchor="middle" x="660.3" y="-156.95" font-family="Times,serif" font-size="14.00">hash0</text>
</g>
<!-- Hash&#45;&gt;hash0 -->
<g id="edge34" class="edge">
<title>Hash&#45;&gt;hash0</title>
<path fill="none" stroke="black" d="M706.99,-217.46C699.38,-208.58 689.66,-197.25 681.07,-187.22"/>
<polygon fill="black" stroke="black" points="683.73,-184.96 674.57,-179.64 678.42,-189.51 683.73,-184.96"/>
</g>
</g>
</svg>
