<?xml version="1.0" encoding="UTF-8" standalone="no"?>
<!DOCTYPE svg PUBLIC "-//W3C//DTD SVG 1.1//EN"
 "http://www.w3.org/Graphics/SVG/1.1/DTD/svg11.dtd">
<!-- Generated by graphviz version 12.2.1 (20241206.2353)
 -->
<!-- Pages: 1 -->
<svg width="290pt" height="260pt"
 viewBox="0.00 0.00 290.44 260.00" xmlns="http://www.w3.org/2000/svg" xmlns:xlink="http://www.w3.org/1999/xlink">
<g id="graph0" class="graph" transform="scale(1 1) rotate(0) translate(4 256)">
<polygon fill="white" stroke="none" points="-4,4 -4,-256 286.44,-256 286.44,4 -4,4"/>
<!-- Xtr -->
<g id="node1" class="node">
<title>Xtr</title>
<ellipse fill="none" stroke="black" cx="123.07" cy="-234" rx="27" ry="18"/>
<text text-anchor="middle" x="123.07" y="-228.95" font-family="Times,serif" font-size="14.00">Xtr</text>
</g>
<!-- Names -->
<g id="node2" class="node">
<title>Names</title>
<ellipse fill="none" stroke="black" cx="123.07" cy="-162" rx="37.02" ry="18"/>
<text text-anchor="middle" x="123.07" y="-156.95" font-family="Times,serif" font-size="14.00">Names</text>
</g>
<!-- Xtr&#45;&#45;Names -->
<g id="edge1" class="edge">
<title>Xtr&#45;&#45;Names</title>
<path fill="none" stroke="black" d="M123.07,-215.7C123.07,-204.85 123.07,-190.92 123.07,-180.1"/>
</g>
<!-- Sample -->
<g id="node3" class="node">
<title>Sample</title>
<ellipse fill="none" stroke="black" cx="39.07" cy="-90" rx="39.07" ry="18"/>
<text text-anchor="middle" x="39.07" y="-84.95" font-family="Times,serif" font-size="14.00">Sample</text>
</g>
<!-- Xtr&#45;&#45;Sample -->
<g id="edge2" class="edge">
<title>Xtr&#45;&#45;Sample</title>
<path fill="none" stroke="black" d="M108.44,-218.68C98.66,-208.54 85.99,-194.25 77.07,-180 62.45,-156.64 50.97,-126.69 44.6,-108.17"/>
</g>
<!-- Parameters -->
<g id="node4" class="node">
<title>Parameters</title>
<ellipse fill="none" stroke="black" cx="230.07" cy="-162" rx="52.38" ry="18"/>
<text text-anchor="middle" x="230.07" y="-156.95" font-family="Times,serif" font-size="14.00">Parameters</text>
</g>
<!-- Xtr&#45;&#45;Parameters -->
<g id="edge3" class="edge">
<title>Xtr&#45;&#45;Parameters</title>
<path fill="none" stroke="black" d="M141.71,-220.81C159.67,-209.06 186.92,-191.23 206.4,-178.48"/>
</g>
<!-- Xpd -->
<g id="node5" class="node">
<title>Xpd</title>
<ellipse fill="none" stroke="black" cx="195.07" cy="-90" rx="27" ry="18"/>
<text text-anchor="middle" x="195.07" y="-84.95" font-family="Times,serif" font-size="14.00">Xpd</text>
</g>
<!-- Names&#45;&#45;Xpd -->
<g id="edge4" class="edge">
<title>Names&#45;&#45;Xpd</title>
<path fill="none" stroke="black" d="M139.05,-145.46C151.48,-133.38 168.57,-116.76 180.6,-105.07"/>
</g>
<!-- Log -->
<g id="node6" class="node">
<title>Log</title>
<ellipse fill="none" stroke="black" cx="123.07" cy="-90" rx="27" ry="18"/>
<text text-anchor="middle" x="123.07" y="-84.95" font-family="Times,serif" font-size="14.00">Log</text>
</g>
<!-- Names&#45;&#45;Log -->
<g id="edge5" class="edge">
<title>Names&#45;&#45;Log</title>
<path fill="none" stroke="black" d="M123.07,-143.7C123.07,-132.85 123.07,-118.92 123.07,-108.1"/>
</g>
<!-- Key -->
<g id="node7" class="node">
<title>Key</title>
<ellipse fill="none" stroke="black" cx="123.07" cy="-18" rx="27" ry="18"/>
<text text-anchor="middle" x="123.07" y="-12.95" font-family="Times,serif" font-size="14.00">Key</text>
</g>
<!-- Sample&#45;&#45;Key -->
<g id="edge6" class="edge">
<title>Sample&#45;&#45;Key</title>
<path fill="none" stroke="black" d="M57.29,-73.81C71.96,-61.59 92.4,-44.56 106.59,-32.74"/>
</g>
<!-- Parameters&#45;&#45;Log -->
<g id="edge7" class="edge">
<title>Parameters&#45;&#45;Log</title>
<path fill="none" stroke="black" d="M206.59,-145.64C187.15,-132.92 159.89,-115.09 141.87,-103.3"/>
</g>
<!-- Hash -->
<g id="node8" class="node">
<title>Hash</title>
<ellipse fill="none" stroke="black" cx="224.07" cy="-18" rx="29.86" ry="18"/>
<text text-anchor="middle" x="224.07" y="-12.95" font-family="Times,serif" font-size="14.00">Hash</text>
</g>
<!-- Parameters&#45;&#45;Hash -->
<g id="edge8" class="edge">
<title>Parameters&#45;&#45;Hash</title>
<path fill="none" stroke="black" d="M231.05,-143.58C231.88,-125.63 232.7,-96.82 231.07,-72 230.28,-59.96 228.48,-46.48 226.91,-36.13"/>
</g>
<!-- Xpd&#45;&#45;Key -->
<g id="edge9" class="edge">
<title>Xpd&#45;&#45;Key</title>
<path fill="none" stroke="black" d="M180.15,-74.5C167.79,-62.48 150.32,-45.49 137.97,-33.49"/>
</g>
<!-- Xpd&#45;&#45;Hash -->
<g id="edge10" class="edge">
<title>Xpd&#45;&#45;Hash</title>
<path fill="none" stroke="black" d="M201.94,-72.41C206.5,-61.41 212.46,-47.03 217.04,-35.96"/>
</g>
<!-- Log&#45;&#45;Key -->
<g id="edge11" class="edge">
<title>Log&#45;&#45;Key</title>
<path fill="none" stroke="black" d="M123.07,-71.7C123.07,-60.85 123.07,-46.92 123.07,-36.1"/>
</g>
</g>
</svg>
