<?xml version="1.0" encoding="UTF-8" standalone="no"?>
<!DOCTYPE svg PUBLIC "-//W3C//DTD SVG 1.1//EN"
 "http://www.w3.org/Graphics/SVG/1.1/DTD/svg11.dtd">
<!-- Generated by graphviz version 12.2.1 (20241206.2353)
 -->
<!-- Pages: 1 -->
<svg width="880pt" height="476pt"
 viewBox="0.00 0.00 880.00 476.00" xmlns="http://www.w3.org/2000/svg" xmlns:xlink="http://www.w3.org/1999/xlink">
<g id="graph0" class="graph" transform="scale(1 1) rotate(0) translate(4 472)">
<polygon fill="white" stroke="none" points="-4,4 -4,-472 876,-472 876,4 -4,4"/>
<!-- adversary -->
<g id="node1" class="node">
<title>adversary</title>
<ellipse fill="none" stroke="black" cx="356" cy="-450" rx="46.75" ry="18"/>
<text text-anchor="middle" x="356" y="-444.95" font-family="Times,serif" font-size="14.00">adversary</text>
</g>
<!-- Xtr -->
<g id="node2" class="node">
<title>Xtr</title>
<ellipse fill="none" stroke="black" cx="158" cy="-306" rx="27" ry="18"/>
<text text-anchor="middle" x="158" y="-300.95" font-family="Times,serif" font-size="14.00">Xtr</text>
</g>
<!-- adversary&#45;&gt;Xtr -->
<g id="edge1" class="edge">
<title>adversary&#45;&gt;Xtr</title>
<path fill="none" stroke="black" d="M332.64,-434.06C316.55,-423.64 294.77,-409.28 276,-396 243.78,-373.21 207.68,-345.68 183.99,-327.33"/>
<polygon fill="black" stroke="black" points="186.19,-324.6 176.15,-321.23 181.9,-330.13 186.19,-324.6"/>
</g>
<!-- DH -->
<g id="node3" class="node">
<title>DH</title>
<ellipse fill="none" stroke="black" cx="234" cy="-306" rx="27" ry="18"/>
<text text-anchor="middle" x="234" y="-300.95" font-family="Times,serif" font-size="14.00">DH</text>
</g>
<!-- adversary&#45;&gt;DH -->
<g id="edge2" class="edge">
<title>adversary&#45;&gt;DH</title>
<path fill="none" stroke="black" d="M341.77,-432.43C320.21,-407.35 279.19,-359.6 254.45,-330.8"/>
<polygon fill="black" stroke="black" points="257.19,-328.62 248.02,-323.32 251.88,-333.18 257.19,-328.62"/>
</g>
<!-- ExternalPskSetter -->
<g id="node4" class="node">
<title>ExternalPskSetter</title>
<ellipse fill="none" stroke="black" cx="356" cy="-306" rx="76.94" ry="18"/>
<text text-anchor="middle" x="356" y="-300.95" font-family="Times,serif" font-size="14.00">ExternalPskSetter</text>
</g>
<!-- adversary&#45;&gt;ExternalPskSetter -->
<g id="edge3" class="edge">
<title>adversary&#45;&gt;ExternalPskSetter</title>
<path fill="none" stroke="black" d="M356,-431.59C356,-407.61 356,-364.14 356,-335.42"/>
<polygon fill="black" stroke="black" points="359.5,-335.62 356,-325.62 352.5,-335.62 359.5,-335.62"/>
</g>
<!-- OutputKeyGetter -->
<g id="node5" class="node">
<title>OutputKeyGetter</title>
<ellipse fill="none" stroke="black" cx="526" cy="-306" rx="74.89" ry="18"/>
<text text-anchor="middle" x="526" y="-300.95" font-family="Times,serif" font-size="14.00">OutputKeyGetter</text>
</g>
<!-- adversary&#45;&gt;OutputKeyGetter -->
<g id="edge4" class="edge">
<title>adversary&#45;&gt;OutputKeyGetter</title>
<path fill="none" stroke="black" d="M374.84,-433.26C404.52,-408.47 462.36,-360.15 497.26,-331.01"/>
<polygon fill="black" stroke="black" points="499.43,-333.75 504.86,-324.66 494.94,-328.38 499.43,-333.75"/>
</g>
<!-- Check -->
<g id="node6" class="node">
<title>Check</title>
<ellipse fill="none" stroke="black" cx="659" cy="-378" rx="34.46" ry="18"/>
<text text-anchor="middle" x="659" y="-372.95" font-family="Times,serif" font-size="14.00">Check</text>
</g>
<!-- adversary&#45;&gt;Check -->
<g id="edge5" class="edge">
<title>adversary&#45;&gt;Check</title>
<path fill="none" stroke="black" d="M395.3,-439.92C452.5,-426.71 558.23,-402.28 616.94,-388.72"/>
<polygon fill="black" stroke="black" points="617.6,-392.16 626.55,-386.5 616.02,-385.34 617.6,-392.16"/>
</g>
<!-- Names -->
<g id="node7" class="node">
<title>Names</title>
<ellipse fill="none" stroke="black" cx="398" cy="-18" rx="37.02" ry="18"/>
<text text-anchor="middle" x="398" y="-12.95" font-family="Times,serif" font-size="14.00">Names</text>
</g>
<!-- Xtr&#45;&gt;Names -->
<g id="edge6" class="edge">
<title>Xtr&#45;&gt;Names</title>
<path fill="none" stroke="black" d="M144.54,-290.24C119.25,-260.64 69.9,-192.74 101,-144 155.33,-58.85 280.76,-31.63 349.98,-22.98"/>
<polygon fill="black" stroke="black" points="350.36,-26.46 359.89,-21.84 349.56,-19.51 350.36,-26.46"/>
</g>
<!-- Key -->
<g id="node8" class="node">
<title>Key</title>
<ellipse fill="none" stroke="black" cx="421" cy="-234" rx="27" ry="18"/>
<text text-anchor="middle" x="421" y="-228.95" font-family="Times,serif" font-size="14.00">Key</text>
</g>
<!-- Xtr&#45;&gt;Key -->
<g id="edge7" class="edge">
<title>Xtr&#45;&gt;Key</title>
<path fill="none" stroke="black" d="M179.75,-294.97C185.6,-292.49 191.98,-289.98 198,-288 262.03,-266.95 338.94,-250.56 383.67,-241.87"/>
<polygon fill="black" stroke="black" points="384.2,-245.33 393.37,-240.01 382.89,-238.46 384.2,-245.33"/>
</g>
<!-- xtr0 -->
<g id="node9" class="node">
<title>xtr0</title>
<ellipse fill="none" stroke="black" cx="27" cy="-234" rx="27" ry="18"/>
<text text-anchor="middle" x="27" y="-228.95" font-family="Times,serif" font-size="14.00">xtr0</text>
</g>
<!-- Xtr&#45;&gt;xtr0 -->
<g id="edge8" class="edge">
<title>Xtr&#45;&gt;xtr0</title>
<path fill="none" stroke="black" d="M137.24,-293.91C115.78,-282.44 82.04,-264.41 57.53,-251.32"/>
<polygon fill="black" stroke="black" points="59.46,-248.38 49,-246.75 56.17,-254.55 59.46,-248.38"/>
</g>
<!-- Sample -->
<g id="node10" class="node">
<title>Sample</title>
<ellipse fill="none" stroke="black" cx="149" cy="-162" rx="39.07" ry="18"/>
<text text-anchor="middle" x="149" y="-156.95" font-family="Times,serif" font-size="14.00">Sample</text>
</g>
<!-- Xtr&#45;&gt;Sample -->
<g id="edge9" class="edge">
<title>Xtr&#45;&gt;Sample</title>
<path fill="none" stroke="black" d="M156.9,-287.59C155.38,-263.61 152.62,-220.14 150.8,-191.42"/>
<polygon fill="black" stroke="black" points="154.31,-191.38 150.18,-181.62 147.32,-191.82 154.31,-191.38"/>
</g>
<!-- Parameters -->
<g id="node11" class="node">
<title>Parameters</title>
<ellipse fill="none" stroke="black" cx="398" cy="-90" rx="52.38" ry="18"/>
<text text-anchor="middle" x="398" y="-84.95" font-family="Times,serif" font-size="14.00">Parameters</text>
</g>
<!-- Xtr&#45;&gt;Parameters -->
<g id="edge10" class="edge">
<title>Xtr&#45;&gt;Parameters</title>
<path fill="none" stroke="black" d="M179.58,-294.65C216.89,-275.93 294.32,-233.39 345,-180 362.18,-161.9 376.31,-137.27 385.64,-118.51"/>
<polygon fill="black" stroke="black" points="388.75,-120.13 389.92,-109.6 382.44,-117.1 388.75,-120.13"/>
</g>
<!-- DH&#45;&gt;Names -->
<g id="edge11" class="edge">
<title>DH&#45;&gt;Names</title>
<path fill="none" stroke="black" d="M232.6,-287.53C230.2,-245.41 229.88,-136.96 283,-72 300.74,-50.3 329.33,-37.07 353.56,-29.26"/>
<polygon fill="black" stroke="black" points="354.31,-32.69 362.88,-26.47 352.3,-25.98 354.31,-32.69"/>
</g>
<!-- DH&#45;&gt;Key -->
<g id="edge12" class="edge">
<title>DH&#45;&gt;Key</title>
<path fill="none" stroke="black" d="M255.16,-294.56C259.99,-292.3 265.14,-289.99 270,-288 309.26,-271.89 355.43,-256.14 386.28,-246.05"/>
<polygon fill="black" stroke="black" points="387.04,-249.48 395.47,-243.07 384.88,-242.82 387.04,-249.48"/>
</g>
<!-- ExternalPskSetter&#45;&gt;Names -->
<g id="edge13" class="edge">
<title>ExternalPskSetter&#45;&gt;Names</title>
<path fill="none" stroke="black" d="M337.22,-288.1C308.15,-259.78 257.16,-200.31 273,-144 283.16,-107.9 290.89,-98.92 317,-72 330.34,-58.24 347.86,-46.23 363.2,-37.13"/>
<polygon fill="black" stroke="black" points="364.64,-40.34 371.58,-32.33 361.17,-34.26 364.64,-40.34"/>
</g>
<!-- ExternalPskSetter&#45;&gt;Key -->
<g id="edge14" class="edge">
<title>ExternalPskSetter&#45;&gt;Key</title>
<path fill="none" stroke="black" d="M371.73,-288.05C380.1,-279.04 390.52,-267.83 399.61,-258.04"/>
<polygon fill="black" stroke="black" points="401.91,-260.71 406.15,-251 396.78,-255.94 401.91,-260.71"/>
</g>
<!-- OutputKeyGetter&#45;&gt;Names -->
<g id="edge15" class="edge">
<title>OutputKeyGetter&#45;&gt;Names</title>
<path fill="none" stroke="black" d="M556.44,-289.1C605.49,-261.31 693.02,-201.38 657,-144 610.24,-69.51 505.21,-38.35 444.23,-26.16"/>
<polygon fill="black" stroke="black" points="444.98,-22.74 434.5,-24.31 443.68,-29.61 444.98,-22.74"/>
</g>
<!-- OutputKeyGetter&#45;&gt;Key -->
<g id="edge16" class="edge">
<title>OutputKeyGetter&#45;&gt;Key</title>
<path fill="none" stroke="black" d="M501.38,-288.59C485.72,-278.15 465.4,-264.6 449.1,-253.74"/>
<polygon fill="black" stroke="black" points="451.08,-250.85 440.82,-248.21 447.19,-256.67 451.08,-250.85"/>
</g>
<!-- Check&#45;&gt;Names -->
<g id="edge17" class="edge">
<title>Check&#45;&gt;Names</title>
<path fill="none" stroke="black" d="M691.35,-371.02C750.94,-357.93 872,-320.78 872,-235 872,-235 872,-235 872,-161 872,-72.67 566.11,-34.62 445.79,-23.07"/>
<polygon fill="black" stroke="black" points="446.2,-19.59 435.91,-22.14 445.54,-26.56 446.2,-19.59"/>
</g>
<!-- Check&#45;&gt;Key -->
<g id="edge19" class="edge">
<title>Check&#45;&gt;Key</title>
<path fill="none" stroke="black" d="M654.08,-359.92C647.39,-339.77 633.49,-306.63 610,-288 586.5,-269.37 505.99,-251.31 457.96,-241.84"/>
<polygon fill="black" stroke="black" points="458.76,-238.43 448.28,-239.96 457.43,-245.3 458.76,-238.43"/>
</g>
<!-- Xpd -->
<g id="node12" class="node">
<title>Xpd</title>
<ellipse fill="none" stroke="black" cx="687" cy="-306" rx="27" ry="18"/>
<text text-anchor="middle" x="687" y="-300.95" font-family="Times,serif" font-size="14.00">Xpd</text>
</g>
<!-- Check&#45;&gt;Xpd -->
<g id="edge18" class="edge">
<title>Check&#45;&gt;Xpd</title>
<path fill="none" stroke="black" d="M665.78,-360.05C668.87,-352.32 672.62,-342.96 676.09,-334.27"/>
<polygon fill="black" stroke="black" points="679.26,-335.78 679.72,-325.19 672.76,-333.18 679.26,-335.78"/>
</g>
<!-- Key&#45;&gt;Names -->
<g id="edge20" class="edge">
<title>Key&#45;&gt;Names</title>
<path fill="none" stroke="black" d="M446.25,-227.47C470.22,-220.73 504.89,-206.77 521,-180 529.25,-166.29 526.57,-159 521,-144 504.03,-98.28 460.15,-60.84 429.67,-39.22"/>
<polygon fill="black" stroke="black" points="431.77,-36.41 421.54,-33.62 427.79,-42.17 431.77,-36.41"/>
</g>
<!-- Key&#45;&gt;Sample -->
<g id="edge25" class="edge">
<title>Key&#45;&gt;Sample</title>
<path fill="none" stroke="black" d="M395.9,-226.54C349.79,-214.67 251.04,-189.26 193.38,-174.42"/>
<polygon fill="black" stroke="black" points="194.44,-171.08 183.89,-171.98 192.7,-177.86 194.44,-171.08"/>
</g>
<!-- Key&#45;&gt;Parameters -->
<g id="edge22" class="edge">
<title>Key&#45;&gt;Parameters</title>
<path fill="none" stroke="black" d="M418.23,-215.87C414.36,-191.99 407.29,-148.38 402.62,-119.54"/>
<polygon fill="black" stroke="black" points="406.08,-119 401.03,-109.68 399.17,-120.11 406.08,-119"/>
</g>
<!-- Handles -->
<g id="node13" class="node">
<title>Handles</title>
<ellipse fill="none" stroke="black" cx="471" cy="-162" rx="41.12" ry="18"/>
<text text-anchor="middle" x="471" y="-156.95" font-family="Times,serif" font-size="14.00">Handles</text>
</g>
<!-- Key&#45;&gt;Handles -->
<g id="edge21" class="edge">
<title>Key&#45;&gt;Handles</title>
<path fill="none" stroke="black" d="M432.1,-217.46C438.14,-209.01 445.77,-198.32 452.67,-188.66"/>
<polygon fill="black" stroke="black" points="455.39,-190.87 458.36,-180.7 449.7,-186.8 455.39,-190.87"/>
</g>
<!-- Log -->
<g id="node14" class="node">
<title>Log</title>
<ellipse fill="none" stroke="black" cx="309" cy="-162" rx="27" ry="18"/>
<text text-anchor="middle" x="309" y="-156.95" font-family="Times,serif" font-size="14.00">Log</text>
</g>
<!-- Key&#45;&gt;Log -->
<g id="edge23" class="edge">
<title>Key&#45;&gt;Log</title>
<path fill="none" stroke="black" d="M401.75,-220.97C384.2,-210 358.03,-193.64 337.96,-181.1"/>
<polygon fill="black" stroke="black" points="340,-178.24 329.66,-175.91 336.29,-184.18 340,-178.24"/>
</g>
<!-- Helpers -->
<g id="node15" class="node">
<title>Helpers</title>
<ellipse fill="none" stroke="black" cx="608" cy="-162" rx="39.58" ry="18"/>
<text text-anchor="middle" x="608" y="-156.95" font-family="Times,serif" font-size="14.00">Helpers</text>
</g>
<!-- Key&#45;&gt;Helpers -->
<g id="edge24" class="edge">
<title>Key&#45;&gt;Helpers</title>
<path fill="none" stroke="black" d="M444.31,-224.28C475.14,-212.73 529.97,-192.21 567.61,-178.12"/>
<polygon fill="black" stroke="black" points="568.66,-181.46 576.8,-174.68 566.21,-174.91 568.66,-181.46"/>
</g>
<!-- Parameters&#45;&gt;Names -->
<g id="edge26" class="edge">
<title>Parameters&#45;&gt;Names</title>
<path fill="none" stroke="black" d="M398,-71.7C398,-64.41 398,-55.73 398,-47.54"/>
<polygon fill="black" stroke="black" points="401.5,-47.62 398,-37.62 394.5,-47.62 401.5,-47.62"/>
</g>
<!-- Xpd&#45;&gt;Names -->
<g id="edge28" class="edge">
<title>Xpd&#45;&gt;Names</title>
<path fill="none" stroke="black" d="M713.75,-302.47C744.15,-298 792.48,-285.7 815,-252 841.67,-212.09 842.6,-183.27 815,-144 771.79,-82.51 544.05,-41.12 444.57,-25.71"/>
<polygon fill="black" stroke="black" points="445.28,-22.28 434.87,-24.23 444.23,-29.2 445.28,-22.28"/>
</g>
<!-- Xpd&#45;&gt;Key -->
<g id="edge30" class="edge">
<title>Xpd&#45;&gt;Key</title>
<path fill="none" stroke="black" d="M665,-295.36C658.62,-292.77 651.6,-290.1 645,-288 580.34,-267.4 502.89,-250.8 458.08,-241.97"/>
<polygon fill="black" stroke="black" points="458.85,-238.55 448.36,-240.08 457.51,-245.42 458.85,-238.55"/>
</g>
<!-- Hash -->
<g id="node16" class="node">
<title>Hash</title>
<ellipse fill="none" stroke="black" cx="688" cy="-234" rx="29.86" ry="18"/>
<text text-anchor="middle" x="688" y="-228.95" font-family="Times,serif" font-size="14.00">Hash</text>
</g>
<!-- Xpd&#45;&gt;Hash -->
<g id="edge27" class="edge">
<title>Xpd&#45;&gt;Hash</title>
<path fill="none" stroke="black" d="M687.25,-287.7C687.35,-280.41 687.48,-271.73 687.59,-263.54"/>
<polygon fill="black" stroke="black" points="691.09,-263.67 687.73,-253.62 684.09,-263.57 691.09,-263.67"/>
</g>
<!-- xpd0 -->
<g id="node17" class="node">
<title>xpd0</title>
<ellipse fill="none" stroke="black" cx="573" cy="-234" rx="29.34" ry="18"/>
<text text-anchor="middle" x="573" y="-228.95" font-family="Times,serif" font-size="14.00">xpd0</text>
</g>
<!-- Xpd&#45;&gt;xpd0 -->
<g id="edge29" class="edge">
<title>Xpd&#45;&gt;xpd0</title>
<path fill="none" stroke="black" d="M667.66,-293.13C649.95,-282.25 623.44,-265.97 602.98,-253.41"/>
<polygon fill="black" stroke="black" points="604.85,-250.45 594.49,-248.2 601.18,-256.41 604.85,-250.45"/>
</g>
<!-- Labels -->
<g id="node18" class="node">
<title>Labels</title>
<ellipse fill="none" stroke="black" cx="771" cy="-234" rx="35.49" ry="18"/>
<text text-anchor="middle" x="771" y="-228.95" font-family="Times,serif" font-size="14.00">Labels</text>
</g>
<!-- Xpd&#45;&gt;Labels -->
<g id="edge31" class="edge">
<title>Xpd&#45;&gt;Labels</title>
<path fill="none" stroke="black" d="M703.2,-291.5C714.93,-281.73 731.05,-268.29 744.62,-256.98"/>
<polygon fill="black" stroke="black" points="746.5,-259.97 751.95,-250.88 742.02,-254.59 746.5,-259.97"/>
</g>
<!-- Log&#45;&gt;Names -->
<g id="edge33" class="edge">
<title>Log&#45;&gt;Names</title>
<path fill="none" stroke="black" d="M311.55,-143.73C314.95,-124.86 322.35,-94.35 337,-72 345.05,-59.72 356.72,-48.62 367.7,-39.79"/>
<polygon fill="black" stroke="black" points="369.65,-42.7 375.46,-33.84 365.39,-37.14 369.65,-42.7"/>
</g>
<!-- Log&#45;&gt;Parameters -->
<g id="edge32" class="edge">
<title>Log&#45;&gt;Parameters</title>
<path fill="none" stroke="black" d="M325.74,-147.83C337.8,-138.35 354.39,-125.3 368.64,-114.1"/>
<polygon fill="black" stroke="black" points="370.7,-116.93 376.4,-107.99 366.37,-111.42 370.7,-116.93"/>
</g>
<!-- Hash&#45;&gt;Parameters -->
<g id="edge35" class="edge">
<title>Hash&#45;&gt;Parameters</title>
<path fill="none" stroke="black" d="M686.94,-215.82C684.74,-195.55 677.93,-162.31 657,-144 628.14,-118.75 526.62,-103.89 459.59,-96.6"/>
<polygon fill="black" stroke="black" points="460.14,-93.14 449.82,-95.57 459.4,-100.1 460.14,-93.14"/>
</g>
<!-- hash0 -->
<g id="node19" class="node">
<title>hash0</title>
<ellipse fill="none" stroke="black" cx="774" cy="-162" rx="32.41" ry="18"/>
<text text-anchor="middle" x="774" y="-156.95" font-family="Times,serif" font-size="14.00">hash0</text>
</g>
<!-- Hash&#45;&gt;hash0 -->
<g id="edge34" class="edge">
<title>Hash&#45;&gt;hash0</title>
<path fill="none" stroke="black" d="M704.99,-219.17C717.12,-209.3 733.67,-195.83 747.52,-184.56"/>
<polygon fill="black" stroke="black" points="749.44,-187.51 754.98,-178.48 745.02,-182.08 749.44,-187.51"/>
</g>
<!-- xpd0&#45;&gt;Helpers -->
<g id="edge36" class="edge">
<title>xpd0&#45;&gt;Helpers</title>
<path fill="none" stroke="black" d="M581.29,-216.41C585.2,-208.59 589.97,-199.06 594.39,-190.23"/>
<polygon fill="black" stroke="black" points="597.5,-191.82 598.85,-181.31 591.24,-188.69 597.5,-191.82"/>
</g>
</g>
</svg>
