<?xml version="1.0" encoding="UTF-8" standalone="no"?>
<!DOCTYPE svg PUBLIC "-//W3C//DTD SVG 1.1//EN"
 "http://www.w3.org/Graphics/SVG/1.1/DTD/svg11.dtd">
<!-- Generated by graphviz version 12.2.1 (20241206.2353)
 -->
<!-- Pages: 1 -->
<svg width="821pt" height="476pt"
 viewBox="0.00 0.00 820.98 476.00" xmlns="http://www.w3.org/2000/svg" xmlns:xlink="http://www.w3.org/1999/xlink">
<g id="graph0" class="graph" transform="scale(1 1) rotate(0) translate(4 472)">
<polygon fill="white" stroke="none" points="-4,4 -4,-472 816.98,-472 816.98,4 -4,4"/>
<!-- adversary -->
<g id="node1" class="node">
<title>adversary</title>
<ellipse fill="none" stroke="black" cx="317" cy="-450" rx="46.75" ry="18"/>
<text text-anchor="middle" x="317" y="-444.95" font-family="Times,serif" font-size="14.00">adversary</text>
</g>
<!-- DH -->
<g id="node2" class="node">
<title>DH</title>
<ellipse fill="none" stroke="black" cx="27" cy="-306" rx="27" ry="18"/>
<text text-anchor="middle" x="27" y="-300.95" font-family="Times,serif" font-size="14.00">DH</text>
</g>
<!-- adversary&#45;&gt;DH -->
<g id="edge1" class="edge">
<title>adversary&#45;&gt;DH</title>
<path fill="none" stroke="black" d="M288.75,-435.31C266.74,-424.63 235.41,-409.4 208,-396 155.46,-370.31 94.44,-340.26 58.36,-322.47"/>
<polygon fill="black" stroke="black" points="60.31,-319.53 49.8,-318.25 57.22,-325.81 60.31,-319.53"/>
</g>
<!-- OutputKeyGetter -->
<g id="node3" class="node">
<title>OutputKeyGetter</title>
<ellipse fill="none" stroke="black" cx="147" cy="-306" rx="74.89" ry="18"/>
<text text-anchor="middle" x="147" y="-300.95" font-family="Times,serif" font-size="14.00">OutputKeyGetter</text>
</g>
<!-- adversary&#45;&gt;OutputKeyGetter -->
<g id="edge2" class="edge">
<title>adversary&#45;&gt;OutputKeyGetter</title>
<path fill="none" stroke="black" d="M298.16,-433.26C268.48,-408.47 210.64,-360.15 175.74,-331.01"/>
<polygon fill="black" stroke="black" points="178.06,-328.38 168.14,-324.66 173.57,-333.75 178.06,-328.38"/>
</g>
<!-- Check -->
<g id="node4" class="node">
<title>Check</title>
<ellipse fill="none" stroke="black" cx="449" cy="-378" rx="34.46" ry="18"/>
<text text-anchor="middle" x="449" y="-372.95" font-family="Times,serif" font-size="14.00">Check</text>
</g>
<!-- adversary&#45;&gt;Check -->
<g id="edge3" class="edge">
<title>adversary&#45;&gt;Check</title>
<path fill="none" stroke="black" d="M343.71,-434.83C364.39,-423.87 393.17,-408.61 415.41,-396.81"/>
<polygon fill="black" stroke="black" points="416.89,-399.99 424.09,-392.21 413.61,-393.8 416.89,-399.99"/>
</g>
<!-- Xtr -->
<g id="node5" class="node">
<title>Xtr</title>
<ellipse fill="none" stroke="black" cx="734" cy="-306" rx="27" ry="18"/>
<text text-anchor="middle" x="734" y="-300.95" font-family="Times,serif" font-size="14.00">Xtr</text>
</g>
<!-- adversary&#45;&gt;Xtr -->
<g id="edge4" class="edge">
<title>adversary&#45;&gt;Xtr</title>
<path fill="none" stroke="black" d="M353.7,-438.46C389.23,-428.13 444.52,-411.68 492,-396 582.1,-366.24 604.48,-358.18 693,-324 695.64,-322.98 698.37,-321.9 701.11,-320.8"/>
<polygon fill="black" stroke="black" points="702.19,-324.14 710.12,-317.12 699.54,-317.66 702.19,-324.14"/>
</g>
<!-- ExternalPskSetter -->
<g id="node6" class="node">
<title>ExternalPskSetter</title>
<ellipse fill="none" stroke="black" cx="317" cy="-306" rx="76.94" ry="18"/>
<text text-anchor="middle" x="317" y="-300.95" font-family="Times,serif" font-size="14.00">ExternalPskSetter</text>
</g>
<!-- adversary&#45;&gt;ExternalPskSetter -->
<g id="edge5" class="edge">
<title>adversary&#45;&gt;ExternalPskSetter</title>
<path fill="none" stroke="black" d="M317,-431.59C317,-407.61 317,-364.14 317,-335.42"/>
<polygon fill="black" stroke="black" points="320.5,-335.62 317,-325.62 313.5,-335.62 320.5,-335.62"/>
</g>
<!-- Key -->
<g id="node7" class="node">
<title>Key</title>
<ellipse fill="none" stroke="black" cx="305" cy="-234" rx="27" ry="18"/>
<text text-anchor="middle" x="305" y="-228.95" font-family="Times,serif" font-size="14.00">Key</text>
</g>
<!-- DH&#45;&gt;Key -->
<g id="edge6" class="edge">
<title>DH&#45;&gt;Key</title>
<path fill="none" stroke="black" d="M47.99,-294.12C52.83,-291.88 58.03,-289.69 63,-288 133.52,-263.97 219.4,-248.2 267.57,-240.5"/>
<polygon fill="black" stroke="black" points="267.85,-244 277.19,-239 266.77,-237.09 267.85,-244"/>
</g>
<!-- Names -->
<g id="node8" class="node">
<title>Names</title>
<ellipse fill="none" stroke="black" cx="323" cy="-18" rx="37.02" ry="18"/>
<text text-anchor="middle" x="323" y="-12.95" font-family="Times,serif" font-size="14.00">Names</text>
</g>
<!-- DH&#45;&gt;Names -->
<g id="edge7" class="edge">
<title>DH&#45;&gt;Names</title>
<path fill="none" stroke="black" d="M31.18,-287.74C42.51,-244.67 77.93,-131.63 150,-72 185.75,-42.42 237.85,-29.33 275.52,-23.55"/>
<polygon fill="black" stroke="black" points="275.8,-27.04 285.21,-22.19 274.83,-20.11 275.8,-27.04"/>
</g>
<!-- OutputKeyGetter&#45;&gt;Key -->
<g id="edge8" class="edge">
<title>OutputKeyGetter&#45;&gt;Key</title>
<path fill="none" stroke="black" d="M181.67,-289.64C208.82,-277.61 246.29,-261.01 272.78,-249.27"/>
<polygon fill="black" stroke="black" points="273.95,-252.59 281.67,-245.34 271.11,-246.19 273.95,-252.59"/>
</g>
<!-- OutputKeyGetter&#45;&gt;Names -->
<g id="edge9" class="edge">
<title>OutputKeyGetter&#45;&gt;Names</title>
<path fill="none" stroke="black" d="M143.14,-287.77C134.51,-244.25 118.93,-129.32 180,-72 206.65,-46.99 246.14,-33.54 276.87,-26.46"/>
<polygon fill="black" stroke="black" points="277.23,-29.96 286.28,-24.44 275.77,-23.11 277.23,-29.96"/>
</g>
<!-- Check&#45;&gt;Key -->
<g id="edge10" class="edge">
<title>Check&#45;&gt;Key</title>
<path fill="none" stroke="black" d="M443.56,-359.73C436.72,-340.29 423.35,-308.73 403,-288 397.74,-282.64 362.76,-264.26 336.08,-250.64"/>
<polygon fill="black" stroke="black" points="337.83,-247.61 327.33,-246.2 334.66,-253.85 337.83,-247.61"/>
</g>
<!-- Check&#45;&gt;Names -->
<g id="edge11" class="edge">
<title>Check&#45;&gt;Names</title>
<path fill="none" stroke="black" d="M473.18,-364.98C532.23,-335.27 679,-258.99 679,-235 679,-235 679,-235 679,-161 679,-100.84 630.87,-98.79 577,-72 510.44,-38.89 424.15,-26.45 371.22,-21.78"/>
<polygon fill="black" stroke="black" points="371.57,-18.3 361.32,-20.97 371,-25.27 371.57,-18.3"/>
</g>
<!-- Xpd -->
<g id="node9" class="node">
<title>Xpd</title>
<ellipse fill="none" stroke="black" cx="477" cy="-306" rx="27" ry="18"/>
<text text-anchor="middle" x="477" y="-300.95" font-family="Times,serif" font-size="14.00">Xpd</text>
</g>
<!-- Check&#45;&gt;Xpd -->
<g id="edge12" class="edge">
<title>Check&#45;&gt;Xpd</title>
<path fill="none" stroke="black" d="M455.78,-360.05C458.87,-352.32 462.62,-342.96 466.09,-334.27"/>
<polygon fill="black" stroke="black" points="469.26,-335.78 469.72,-325.19 462.76,-333.18 469.26,-335.78"/>
</g>
<!-- Xtr&#45;&gt;Key -->
<g id="edge14" class="edge">
<title>Xtr&#45;&gt;Key</title>
<path fill="none" stroke="black" d="M706.72,-304.19C641.95,-301.64 474.36,-291.45 341,-252 339.38,-251.52 337.75,-250.98 336.12,-250.39"/>
<polygon fill="black" stroke="black" points="337.49,-247.17 326.91,-246.59 334.81,-253.64 337.49,-247.17"/>
</g>
<!-- Xtr&#45;&gt;Names -->
<g id="edge13" class="edge">
<title>Xtr&#45;&gt;Names</title>
<path fill="none" stroke="black" d="M756.69,-295.77C774.25,-287.27 797.31,-272.8 808,-252 815.31,-237.77 813.29,-231.1 808,-216 780.92,-138.7 764.1,-112.67 693,-72 639.08,-41.16 458.87,-26.8 371.42,-21.53"/>
<polygon fill="black" stroke="black" points="371.67,-18.04 361.49,-20.94 371.26,-25.02 371.67,-18.04"/>
</g>
<!-- Parameters -->
<g id="node10" class="node">
<title>Parameters</title>
<ellipse fill="none" stroke="black" cx="370" cy="-90" rx="52.38" ry="18"/>
<text text-anchor="middle" x="370" y="-84.95" font-family="Times,serif" font-size="14.00">Parameters</text>
</g>
<!-- Xtr&#45;&gt;Parameters -->
<g id="edge15" class="edge">
<title>Xtr&#45;&gt;Parameters</title>
<path fill="none" stroke="black" d="M727.38,-288.18C713.36,-254.89 677.35,-180.67 622,-144 565.63,-106.65 487.91,-94.94 433.74,-91.6"/>
<polygon fill="black" stroke="black" points="434.24,-88.12 424.07,-91.09 433.87,-95.11 434.24,-88.12"/>
</g>
<!-- Sample -->
<g id="node11" class="node">
<title>Sample</title>
<ellipse fill="none" stroke="black" cx="454" cy="-162" rx="39.07" ry="18"/>
<text text-anchor="middle" x="454" y="-156.95" font-family="Times,serif" font-size="14.00">Sample</text>
</g>
<!-- Xtr&#45;&gt;Sample -->
<g id="edge16" class="edge">
<title>Xtr&#45;&gt;Sample</title>
<path fill="none" stroke="black" d="M707.48,-301.9C669.19,-296.5 597.16,-282.86 544,-252 540.03,-249.7 502.89,-212.48 477.58,-186.91"/>
<polygon fill="black" stroke="black" points="480.1,-184.48 470.58,-179.82 475.12,-189.4 480.1,-184.48"/>
</g>
<!-- xtr0 -->
<g id="node12" class="node">
<title>xtr0</title>
<ellipse fill="none" stroke="black" cx="772" cy="-234" rx="27" ry="18"/>
<text text-anchor="middle" x="772" y="-228.95" font-family="Times,serif" font-size="14.00">xtr0</text>
</g>
<!-- Xtr&#45;&gt;xtr0 -->
<g id="edge17" class="edge">
<title>Xtr&#45;&gt;xtr0</title>
<path fill="none" stroke="black" d="M742.81,-288.76C747.27,-280.55 752.8,-270.37 757.84,-261.09"/>
<polygon fill="black" stroke="black" points="760.82,-262.94 762.51,-252.48 754.67,-259.6 760.82,-262.94"/>
</g>
<!-- ExternalPskSetter&#45;&gt;Key -->
<g id="edge18" class="edge">
<title>ExternalPskSetter&#45;&gt;Key</title>
<path fill="none" stroke="black" d="M314.03,-287.7C312.77,-280.32 311.26,-271.52 309.84,-263.25"/>
<polygon fill="black" stroke="black" points="313.33,-262.86 308.19,-253.6 306.43,-264.04 313.33,-262.86"/>
</g>
<!-- ExternalPskSetter&#45;&gt;Names -->
<g id="edge19" class="edge">
<title>ExternalPskSetter&#45;&gt;Names</title>
<path fill="none" stroke="black" d="M280.09,-289.94C223.62,-264.48 125.57,-209.26 158,-144 184.35,-90.97 245.14,-54.42 285.12,-35.1"/>
<polygon fill="black" stroke="black" points="286.35,-38.39 293.92,-30.98 283.38,-32.05 286.35,-38.39"/>
</g>
<!-- Key&#45;&gt;Names -->
<g id="edge20" class="edge">
<title>Key&#45;&gt;Names</title>
<path fill="none" stroke="black" d="M304.13,-215.97C302.9,-186.47 301.58,-124.04 309,-72 310.17,-63.77 312.17,-54.99 314.3,-46.99"/>
<polygon fill="black" stroke="black" points="317.65,-48.01 317.02,-37.43 310.92,-46.1 317.65,-48.01"/>
</g>
<!-- Key&#45;&gt;Parameters -->
<g id="edge24" class="edge">
<title>Key&#45;&gt;Parameters</title>
<path fill="none" stroke="black" d="M309.08,-215.71C313.77,-197.36 322.34,-167.78 334,-144 338.58,-134.67 344.61,-125.09 350.42,-116.68"/>
<polygon fill="black" stroke="black" points="353.18,-118.84 356.17,-108.67 347.49,-114.76 353.18,-118.84"/>
</g>
<!-- Key&#45;&gt;Sample -->
<g id="edge23" class="edge">
<title>Key&#45;&gt;Sample</title>
<path fill="none" stroke="black" d="M326.7,-222.74C331.41,-220.52 336.37,-218.18 341,-216 366.44,-204.03 395.13,-190.57 417.23,-180.22"/>
<polygon fill="black" stroke="black" points="418.56,-183.46 426.14,-176.04 415.59,-177.12 418.56,-183.46"/>
</g>
<!-- Log -->
<g id="node13" class="node">
<title>Log</title>
<ellipse fill="none" stroke="black" cx="370" cy="-162" rx="27" ry="18"/>
<text text-anchor="middle" x="370" y="-156.95" font-family="Times,serif" font-size="14.00">Log</text>
</g>
<!-- Key&#45;&gt;Log -->
<g id="edge21" class="edge">
<title>Key&#45;&gt;Log</title>
<path fill="none" stroke="black" d="M318.78,-218.15C327.4,-208.87 338.68,-196.73 348.46,-186.19"/>
<polygon fill="black" stroke="black" points="350.97,-188.64 355.21,-178.93 345.84,-183.88 350.97,-188.64"/>
</g>
<!-- Handles -->
<g id="node14" class="node">
<title>Handles</title>
<ellipse fill="none" stroke="black" cx="208" cy="-162" rx="41.12" ry="18"/>
<text text-anchor="middle" x="208" y="-156.95" font-family="Times,serif" font-size="14.00">Handles</text>
</g>
<!-- Key&#45;&gt;Handles -->
<g id="edge22" class="edge">
<title>Key&#45;&gt;Handles</title>
<path fill="none" stroke="black" d="M287.21,-220.16C273.4,-210.2 253.95,-196.16 237.78,-184.49"/>
<polygon fill="black" stroke="black" points="240.09,-181.84 229.94,-178.83 236,-187.52 240.09,-181.84"/>
</g>
<!-- Xpd&#45;&gt;Key -->
<g id="edge25" class="edge">
<title>Xpd&#45;&gt;Key</title>
<path fill="none" stroke="black" d="M454.49,-295.52C448.5,-293.04 442.02,-290.39 436,-288 394.03,-271.35 382.56,-269.65 341,-252 339.49,-251.36 337.95,-250.69 336.4,-250"/>
<polygon fill="black" stroke="black" points="338.12,-246.94 327.57,-245.98 335.22,-253.31 338.12,-246.94"/>
</g>
<!-- Xpd&#45;&gt;Names -->
<g id="edge26" class="edge">
<title>Xpd&#45;&gt;Names</title>
<path fill="none" stroke="black" d="M504.17,-303.91C538.22,-300.91 595.35,-290.11 622,-252 649.5,-212.66 648.6,-183.95 622,-144 565.7,-59.44 440.08,-31.98 370.93,-23.14"/>
<polygon fill="black" stroke="black" points="371.37,-19.67 361.02,-21.96 370.54,-26.62 371.37,-19.67"/>
</g>
<!-- xpd0 -->
<g id="node15" class="node">
<title>xpd0</title>
<ellipse fill="none" stroke="black" cx="379" cy="-234" rx="29.34" ry="18"/>
<text text-anchor="middle" x="379" y="-228.95" font-family="Times,serif" font-size="14.00">xpd0</text>
</g>
<!-- Xpd&#45;&gt;xpd0 -->
<g id="edge27" class="edge">
<title>Xpd&#45;&gt;xpd0</title>
<path fill="none" stroke="black" d="M459.03,-292.16C444.43,-281.73 423.59,-266.85 406.84,-254.89"/>
<polygon fill="black" stroke="black" points="408.93,-252.08 398.76,-249.11 404.86,-257.77 408.93,-252.08"/>
</g>
<!-- Hash -->
<g id="node16" class="node">
<title>Hash</title>
<ellipse fill="none" stroke="black" cx="583" cy="-234" rx="29.86" ry="18"/>
<text text-anchor="middle" x="583" y="-228.95" font-family="Times,serif" font-size="14.00">Hash</text>
</g>
<!-- Xpd&#45;&gt;Hash -->
<g id="edge28" class="edge">
<title>Xpd&#45;&gt;Hash</title>
<path fill="none" stroke="black" d="M495.46,-292.81C511.55,-282.18 535.16,-266.59 553.81,-254.28"/>
<polygon fill="black" stroke="black" points="555.63,-257.27 562.05,-248.84 551.77,-251.43 555.63,-257.27"/>
</g>
<!-- Labels -->
<g id="node17" class="node">
<title>Labels</title>
<ellipse fill="none" stroke="black" cx="462" cy="-234" rx="35.49" ry="18"/>
<text text-anchor="middle" x="462" y="-228.95" font-family="Times,serif" font-size="14.00">Labels</text>
</g>
<!-- Xpd&#45;&gt;Labels -->
<g id="edge29" class="edge">
<title>Xpd&#45;&gt;Labels</title>
<path fill="none" stroke="black" d="M473.29,-287.7C471.71,-280.32 469.83,-271.52 468.05,-263.25"/>
<polygon fill="black" stroke="black" points="471.5,-262.63 465.98,-253.58 464.66,-264.1 471.5,-262.63"/>
</g>
<!-- Parameters&#45;&gt;Names -->
<g id="edge30" class="edge">
<title>Parameters&#45;&gt;Names</title>
<path fill="none" stroke="black" d="M358.62,-72.05C353.12,-63.85 346.39,-53.83 340.27,-44.71"/>
<polygon fill="black" stroke="black" points="343.27,-42.91 334.79,-36.56 337.46,-46.82 343.27,-42.91"/>
</g>
<!-- Log&#45;&gt;Parameters -->
<g id="edge31" class="edge">
<title>Log&#45;&gt;Parameters</title>
<path fill="none" stroke="black" d="M370,-143.7C370,-136.41 370,-127.73 370,-119.54"/>
<polygon fill="black" stroke="black" points="373.5,-119.62 370,-109.62 366.5,-119.62 373.5,-119.62"/>
</g>
<!-- Hash&#45;&gt;Parameters -->
<g id="edge33" class="edge">
<title>Hash&#45;&gt;Parameters</title>
<path fill="none" stroke="black" d="M570.22,-217.34C551.59,-194.81 517.53,-154.79 502,-144 477.42,-126.93 446.53,-114.14 420.82,-105.41"/>
<polygon fill="black" stroke="black" points="422.18,-102.17 411.58,-102.39 420,-108.82 422.18,-102.17"/>
</g>
<!-- hash0 -->
<g id="node18" class="node">
<title>hash0</title>
<ellipse fill="none" stroke="black" cx="581" cy="-162" rx="32.41" ry="18"/>
<text text-anchor="middle" x="581" y="-156.95" font-family="Times,serif" font-size="14.00">hash0</text>
</g>
<!-- Hash&#45;&gt;hash0 -->
<g id="edge32" class="edge">
<title>Hash&#45;&gt;hash0</title>
<path fill="none" stroke="black" d="M582.51,-215.7C582.3,-208.41 582.05,-199.73 581.82,-191.54"/>
<polygon fill="black" stroke="black" points="585.32,-191.51 581.53,-181.62 578.32,-191.71 585.32,-191.51"/>
</g>
</g>
</svg>
