<?xml version="1.0" encoding="UTF-8" standalone="no"?>
<!DOCTYPE svg PUBLIC "-//W3C//DTD SVG 1.1//EN"
 "http://www.w3.org/Graphics/SVG/1.1/DTD/svg11.dtd">
<!-- Generated by graphviz version 12.2.1 (20241206.2353)
 -->
<!-- Pages: 1 -->
<svg width="779pt" height="620pt"
 viewBox="0.00 0.00 779.00 620.00" xmlns="http://www.w3.org/2000/svg" xmlns:xlink="http://www.w3.org/1999/xlink">
<g id="graph0" class="graph" transform="scale(1 1) rotate(0) translate(4 616)">
<polygon fill="white" stroke="none" points="-4,4 -4,-616 775,-616 775,4 -4,4"/>
<!-- adversary -->
<g id="node1" class="node">
<title>adversary</title>
<ellipse fill="none" stroke="black" cx="360" cy="-594" rx="46.75" ry="18"/>
<text text-anchor="middle" x="360" y="-588.95" font-family="Times,serif" font-size="14.00">adversary</text>
</g>
<!-- Map -->
<g id="node2" class="node">
<title>Map</title>
<ellipse fill="none" stroke="black" cx="308" cy="-378" rx="28.32" ry="18"/>
<text text-anchor="middle" x="308" y="-372.95" font-family="Times,serif" font-size="14.00">Map</text>
</g>
<!-- adversary&#45;&gt;Map -->
<g id="edge1" class="edge">
<title>adversary&#45;&gt;Map</title>
<path fill="none" stroke="black" d="M355.83,-575.85C346.89,-539.07 325.81,-452.29 314.86,-407.24"/>
<polygon fill="black" stroke="black" points="318.31,-406.59 312.54,-397.7 311.5,-408.25 318.31,-406.59"/>
</g>
<!-- Check -->
<g id="node3" class="node">
<title>Check</title>
<ellipse fill="none" stroke="black" cx="428" cy="-522" rx="34.46" ry="18"/>
<text text-anchor="middle" x="428" y="-516.95" font-family="Times,serif" font-size="14.00">Check</text>
</g>
<!-- adversary&#45;&gt;Check -->
<g id="edge2" class="edge">
<title>adversary&#45;&gt;Check</title>
<path fill="none" stroke="black" d="M375.77,-576.76C384.6,-567.68 395.75,-556.19 405.49,-546.18"/>
<polygon fill="black" stroke="black" points="407.73,-548.89 412.19,-539.27 402.71,-544.01 407.73,-548.89"/>
</g>
<!-- Key -->
<g id="node4" class="node">
<title>Key</title>
<ellipse fill="none" stroke="black" cx="279" cy="-234" rx="27" ry="18"/>
<text text-anchor="middle" x="279" y="-228.95" font-family="Times,serif" font-size="14.00">Key</text>
</g>
<!-- Map&#45;&gt;Key -->
<g id="edge3" class="edge">
<title>Map&#45;&gt;Key</title>
<path fill="none" stroke="black" d="M304.5,-359.87C299.6,-335.88 290.64,-291.99 284.75,-263.16"/>
<polygon fill="black" stroke="black" points="288.24,-262.77 282.81,-253.67 281.39,-264.17 288.24,-262.77"/>
</g>
<!-- Names -->
<g id="node5" class="node">
<title>Names</title>
<ellipse fill="none" stroke="black" cx="349" cy="-18" rx="37.02" ry="18"/>
<text text-anchor="middle" x="349" y="-12.95" font-family="Times,serif" font-size="14.00">Names</text>
</g>
<!-- Map&#45;&gt;Names -->
<g id="edge4" class="edge">
<title>Map&#45;&gt;Names</title>
<path fill="none" stroke="black" d="M279.3,-376.8C202.84,-374.63 0,-357.33 0,-235 0,-235 0,-235 0,-161 0,-92.8 62.88,-100.15 125,-72 182.88,-45.77 255.29,-31.67 301.84,-24.76"/>
<polygon fill="black" stroke="black" points="302.19,-28.25 311.59,-23.37 301.2,-21.32 302.19,-28.25"/>
</g>
<!-- MapTable -->
<g id="node6" class="node">
<title>MapTable</title>
<ellipse fill="none" stroke="black" cx="580" cy="-306" rx="49.3" ry="18"/>
<text text-anchor="middle" x="580" y="-300.95" font-family="Times,serif" font-size="14.00">MapTable</text>
</g>
<!-- Map&#45;&gt;MapTable -->
<g id="edge5" class="edge">
<title>Map&#45;&gt;MapTable</title>
<path fill="none" stroke="black" d="M334.45,-370.83C374.96,-361.29 454.75,-342.17 522,-324 525.13,-323.15 528.36,-322.26 531.6,-321.35"/>
<polygon fill="black" stroke="black" points="532.51,-324.73 541.17,-318.62 530.59,-318 532.51,-324.73"/>
</g>
<!-- DH -->
<g id="node7" class="node">
<title>DH</title>
<ellipse fill="none" stroke="black" cx="152" cy="-306" rx="27" ry="18"/>
<text text-anchor="middle" x="152" y="-300.95" font-family="Times,serif" font-size="14.00">DH</text>
</g>
<!-- Map&#45;&gt;DH -->
<g id="edge6" class="edge">
<title>Map&#45;&gt;DH</title>
<path fill="none" stroke="black" d="M284.92,-367.01C260.7,-356.48 221.56,-339.33 188,-324 186.69,-323.4 185.36,-322.79 184.01,-322.17"/>
<polygon fill="black" stroke="black" points="185.57,-319.03 175.03,-317.98 182.61,-325.38 185.57,-319.03"/>
</g>
<!-- Labels -->
<g id="node8" class="node">
<title>Labels</title>
<ellipse fill="none" stroke="black" cx="402" cy="-234" rx="35.49" ry="18"/>
<text text-anchor="middle" x="402" y="-228.95" font-family="Times,serif" font-size="14.00">Labels</text>
</g>
<!-- Map&#45;&gt;Labels -->
<g id="edge7" class="edge">
<title>Map&#45;&gt;Labels</title>
<path fill="none" stroke="black" d="M318.6,-360.99C334.66,-336.72 365.34,-290.37 384.68,-261.16"/>
<polygon fill="black" stroke="black" points="387.57,-263.14 390.17,-252.87 381.73,-259.28 387.57,-263.14"/>
</g>
<!-- Handles -->
<g id="node9" class="node">
<title>Handles</title>
<ellipse fill="none" stroke="black" cx="442" cy="-162" rx="41.12" ry="18"/>
<text text-anchor="middle" x="442" y="-156.95" font-family="Times,serif" font-size="14.00">Handles</text>
</g>
<!-- Map&#45;&gt;Handles -->
<g id="edge8" class="edge">
<title>Map&#45;&gt;Handles</title>
<path fill="none" stroke="black" d="M309.45,-359.71C312.89,-328.14 323.97,-260.35 358,-216 369.63,-200.85 386.91,-188.89 402.79,-180.19"/>
<polygon fill="black" stroke="black" points="404.32,-183.34 411.6,-175.65 401.1,-177.12 404.32,-183.34"/>
</g>
<!-- Xtr -->
<g id="node10" class="node">
<title>Xtr</title>
<ellipse fill="none" stroke="black" cx="224" cy="-306" rx="27" ry="18"/>
<text text-anchor="middle" x="224" y="-300.95" font-family="Times,serif" font-size="14.00">Xtr</text>
</g>
<!-- Map&#45;&gt;Xtr -->
<g id="edge9" class="edge">
<title>Map&#45;&gt;Xtr</title>
<path fill="none" stroke="black" d="M291.4,-363.17C279.25,-353.04 262.54,-339.11 248.8,-327.66"/>
<polygon fill="black" stroke="black" points="251.36,-325.24 241.44,-321.53 246.88,-330.62 251.36,-325.24"/>
</g>
<!-- Xpd -->
<g id="node11" class="node">
<title>Xpd</title>
<ellipse fill="none" stroke="black" cx="486" cy="-306" rx="27" ry="18"/>
<text text-anchor="middle" x="486" y="-300.95" font-family="Times,serif" font-size="14.00">Xpd</text>
</g>
<!-- Map&#45;&gt;Xpd -->
<g id="edge10" class="edge">
<title>Map&#45;&gt;Xpd</title>
<path fill="none" stroke="black" d="M331.64,-367.7C362.75,-355.47 417.61,-333.9 452.85,-320.04"/>
<polygon fill="black" stroke="black" points="453.68,-323.47 461.7,-316.55 451.12,-316.96 453.68,-323.47"/>
</g>
<!-- Check&#45;&gt;Map -->
<g id="edge12" class="edge">
<title>Check&#45;&gt;Map</title>
<path fill="none" stroke="black" d="M414.47,-504.99C393.45,-480.12 352.83,-432.05 328.29,-403.01"/>
<polygon fill="black" stroke="black" points="331.04,-400.84 321.91,-395.46 325.69,-405.36 331.04,-400.84"/>
</g>
<!-- Check&#45;&gt;Names -->
<g id="edge13" class="edge">
<title>Check&#45;&gt;Names</title>
<path fill="none" stroke="black" d="M459.96,-514.9C545.11,-497.75 771,-445.95 771,-379 771,-379 771,-379 771,-161 771,-98.11 718.31,-97.89 661,-72 573.8,-32.61 460.84,-22.29 397.53,-19.71"/>
<polygon fill="black" stroke="black" points="397.94,-16.22 387.82,-19.37 397.69,-23.22 397.94,-16.22"/>
</g>
<!-- MapXpdRemap -->
<g id="node12" class="node">
<title>MapXpdRemap</title>
<ellipse fill="none" stroke="black" cx="544" cy="-450" rx="70.8" ry="18"/>
<text text-anchor="middle" x="544" y="-444.95" font-family="Times,serif" font-size="14.00">MapXpdRemap</text>
</g>
<!-- Check&#45;&gt;MapXpdRemap -->
<g id="edge11" class="edge">
<title>Check&#45;&gt;MapXpdRemap</title>
<path fill="none" stroke="black" d="M450.09,-507.67C466.36,-497.85 488.85,-484.28 507.74,-472.88"/>
<polygon fill="black" stroke="black" points="509.47,-475.93 516.22,-467.76 505.85,-469.93 509.47,-475.93"/>
</g>
<!-- Key&#45;&gt;Names -->
<g id="edge14" class="edge">
<title>Key&#45;&gt;Names</title>
<path fill="none" stroke="black" d="M275.82,-215.94C270.97,-185.31 264.59,-119.76 288,-72 294.41,-58.91 305.67,-47.71 316.78,-39.03"/>
<polygon fill="black" stroke="black" points="318.72,-41.95 324.75,-33.23 314.6,-36.29 318.72,-41.95"/>
</g>
<!-- Key&#45;&gt;Handles -->
<g id="edge16" class="edge">
<title>Key&#45;&gt;Handles</title>
<path fill="none" stroke="black" d="M301.32,-223.41C327.49,-212.18 371.3,-193.36 403.1,-179.71"/>
<polygon fill="black" stroke="black" points="404.17,-183.05 411.98,-175.89 401.41,-176.62 404.17,-183.05"/>
</g>
<!-- Log -->
<g id="node13" class="node">
<title>Log</title>
<ellipse fill="none" stroke="black" cx="356" cy="-162" rx="27" ry="18"/>
<text text-anchor="middle" x="356" y="-156.95" font-family="Times,serif" font-size="14.00">Log</text>
</g>
<!-- Key&#45;&gt;Log -->
<g id="edge15" class="edge">
<title>Key&#45;&gt;Log</title>
<path fill="none" stroke="black" d="M294.58,-218.83C305.33,-209.06 319.83,-195.88 332.04,-184.78"/>
<polygon fill="black" stroke="black" points="334.28,-187.48 339.32,-178.16 329.57,-182.3 334.28,-187.48"/>
</g>
<!-- Sample -->
<g id="node14" class="node">
<title>Sample</title>
<ellipse fill="none" stroke="black" cx="196" cy="-162" rx="39.07" ry="18"/>
<text text-anchor="middle" x="196" y="-156.95" font-family="Times,serif" font-size="14.00">Sample</text>
</g>
<!-- Key&#45;&gt;Sample -->
<g id="edge17" class="edge">
<title>Key&#45;&gt;Sample</title>
<path fill="none" stroke="black" d="M262.6,-219.17C251.24,-209.59 235.86,-196.61 222.74,-185.55"/>
<polygon fill="black" stroke="black" points="225.15,-183.01 215.25,-179.23 220.64,-188.36 225.15,-183.01"/>
</g>
<!-- Parameters -->
<g id="node15" class="node">
<title>Parameters</title>
<ellipse fill="none" stroke="black" cx="349" cy="-90" rx="52.38" ry="18"/>
<text text-anchor="middle" x="349" y="-84.95" font-family="Times,serif" font-size="14.00">Parameters</text>
</g>
<!-- Key&#45;&gt;Parameters -->
<g id="edge18" class="edge">
<title>Key&#45;&gt;Parameters</title>
<path fill="none" stroke="black" d="M286.22,-216.43C294.16,-198.44 307.46,-168.92 320,-144 324.31,-135.44 329.24,-126.23 333.8,-117.93"/>
<polygon fill="black" stroke="black" points="336.77,-119.79 338.56,-109.35 330.65,-116.4 336.77,-119.79"/>
</g>
<!-- MapTable&#45;&gt;Names -->
<g id="edge20" class="edge">
<title>MapTable&#45;&gt;Names</title>
<path fill="none" stroke="black" d="M618.22,-294.43C639.24,-286.44 663.52,-273.15 676,-252 701.09,-209.48 684.08,-179.72 650,-144 579.99,-70.62 460.46,-38.72 395.08,-26.18"/>
<polygon fill="black" stroke="black" points="395.86,-22.77 385.39,-24.4 394.6,-29.65 395.86,-22.77"/>
</g>
<!-- MapTable&#45;&gt;Handles -->
<g id="edge19" class="edge">
<title>MapTable&#45;&gt;Handles</title>
<path fill="none" stroke="black" d="M561.55,-288.97C549.93,-278.68 534.78,-264.88 522,-252 501.13,-230.96 478.68,-205.73 462.89,-187.52"/>
<polygon fill="black" stroke="black" points="465.87,-185.62 456.69,-180.33 460.57,-190.19 465.87,-185.62"/>
</g>
<!-- DH&#45;&gt;Key -->
<g id="edge21" class="edge">
<title>DH&#45;&gt;Key</title>
<path fill="none" stroke="black" d="M172.4,-293.75C193.05,-282.37 225.2,-264.65 248.8,-251.65"/>
<polygon fill="black" stroke="black" points="250.25,-254.84 257.32,-246.95 246.87,-248.71 250.25,-254.84"/>
</g>
<!-- DH&#45;&gt;Names -->
<g id="edge22" class="edge">
<title>DH&#45;&gt;Names</title>
<path fill="none" stroke="black" d="M130.73,-294.59C115.16,-285.67 95.21,-271.21 86,-252 64.82,-207.83 84.35,-186.9 108,-144 128.38,-107.02 134.54,-94.93 170,-72 210.33,-45.93 263.94,-32.28 301.95,-25.41"/>
<polygon fill="black" stroke="black" points="302.45,-28.88 311.72,-23.75 301.27,-21.98 302.45,-28.88"/>
</g>
<!-- Xtr&#45;&gt;Key -->
<g id="edge24" class="edge">
<title>Xtr&#45;&gt;Key</title>
<path fill="none" stroke="black" d="M236.21,-289.46C243.11,-280.67 251.91,-269.48 259.73,-259.53"/>
<polygon fill="black" stroke="black" points="262.47,-261.71 265.89,-251.68 256.96,-257.38 262.47,-261.71"/>
</g>
<!-- Xtr&#45;&gt;Names -->
<g id="edge23" class="edge">
<title>Xtr&#45;&gt;Names</title>
<path fill="none" stroke="black" d="M202.79,-294.68C197.96,-292.41 192.83,-290.07 188,-288 147.27,-270.53 120.05,-288.56 95,-252 85.96,-238.8 90.67,-231.4 95,-216 123.08,-116.21 244.14,-57.52 308.46,-32.82"/>
<polygon fill="black" stroke="black" points="309.47,-36.18 317.61,-29.4 307.02,-29.62 309.47,-36.18"/>
</g>
<!-- Xtr&#45;&gt;Sample -->
<g id="edge26" class="edge">
<title>Xtr&#45;&gt;Sample</title>
<path fill="none" stroke="black" d="M220.62,-287.87C215.89,-263.88 207.24,-219.99 201.55,-191.16"/>
<polygon fill="black" stroke="black" points="205.05,-190.81 199.68,-181.67 198.18,-192.16 205.05,-190.81"/>
</g>
<!-- Xtr&#45;&gt;Parameters -->
<g id="edge25" class="edge">
<title>Xtr&#45;&gt;Parameters</title>
<path fill="none" stroke="black" d="M213.68,-289.12C193.69,-258.21 151.34,-191.92 148,-180 143.68,-164.59 138.23,-156.67 148,-144 165.19,-121.69 236.11,-106.89 288.87,-98.73"/>
<polygon fill="black" stroke="black" points="289.29,-102.2 298.66,-97.26 288.25,-95.28 289.29,-102.2"/>
</g>
<!-- xtr0 -->
<g id="node16" class="node">
<title>xtr0</title>
<ellipse fill="none" stroke="black" cx="131" cy="-234" rx="27" ry="18"/>
<text text-anchor="middle" x="131" y="-228.95" font-family="Times,serif" font-size="14.00">xtr0</text>
</g>
<!-- Xtr&#45;&gt;xtr0 -->
<g id="edge27" class="edge">
<title>Xtr&#45;&gt;xtr0</title>
<path fill="none" stroke="black" d="M206.51,-291.83C192.61,-281.37 172.95,-266.58 157.18,-254.7"/>
<polygon fill="black" stroke="black" points="159.72,-252.24 149.62,-249.02 155.51,-257.83 159.72,-252.24"/>
</g>
<!-- Xpd&#45;&gt;Key -->
<g id="edge28" class="edge">
<title>Xpd&#45;&gt;Key</title>
<path fill="none" stroke="black" d="M462.25,-296.97C425.78,-284.63 355.76,-260.96 313.62,-246.71"/>
<polygon fill="black" stroke="black" points="314.81,-243.42 304.22,-243.53 312.57,-250.05 314.81,-243.42"/>
</g>
<!-- Xpd&#45;&gt;Names -->
<g id="edge29" class="edge">
<title>Xpd&#45;&gt;Names</title>
<path fill="none" stroke="black" d="M491.36,-288.07C500,-257.65 513.92,-192.41 492,-144 469.91,-95.2 418.26,-57.99 383.47,-37.32"/>
<polygon fill="black" stroke="black" points="385.43,-34.41 375.02,-32.45 381.93,-40.47 385.43,-34.41"/>
</g>
<!-- Xpd&#45;&gt;Labels -->
<g id="edge32" class="edge">
<title>Xpd&#45;&gt;Labels</title>
<path fill="none" stroke="black" d="M469.8,-291.5C458.07,-281.73 441.95,-268.29 428.38,-256.98"/>
<polygon fill="black" stroke="black" points="430.98,-254.59 421.05,-250.88 426.5,-259.97 430.98,-254.59"/>
</g>
<!-- xpd0 -->
<g id="node17" class="node">
<title>xpd0</title>
<ellipse fill="none" stroke="black" cx="638" cy="-234" rx="29.34" ry="18"/>
<text text-anchor="middle" x="638" y="-228.95" font-family="Times,serif" font-size="14.00">xpd0</text>
</g>
<!-- Xpd&#45;&gt;xpd0 -->
<g id="edge30" class="edge">
<title>Xpd&#45;&gt;xpd0</title>
<path fill="none" stroke="black" d="M507.68,-294.71C512.4,-292.48 517.36,-290.15 522,-288 549.74,-275.12 581.31,-260.71 604.51,-250.17"/>
<polygon fill="black" stroke="black" points="605.81,-253.42 613.47,-246.1 602.92,-247.04 605.81,-253.42"/>
</g>
<!-- Hash -->
<g id="node18" class="node">
<title>Hash</title>
<ellipse fill="none" stroke="black" cx="561" cy="-234" rx="29.86" ry="18"/>
<text text-anchor="middle" x="561" y="-228.95" font-family="Times,serif" font-size="14.00">Hash</text>
</g>
<!-- Xpd&#45;&gt;Hash -->
<g id="edge31" class="edge">
<title>Xpd&#45;&gt;Hash</title>
<path fill="none" stroke="black" d="M501.18,-290.83C511.51,-281.19 525.4,-268.23 537.19,-257.22"/>
<polygon fill="black" stroke="black" points="539.3,-260.04 544.22,-250.66 534.52,-254.92 539.3,-260.04"/>
</g>
<!-- MapXpdRemap&#45;&gt;Map -->
<g id="edge39" class="edge">
<title>MapXpdRemap&#45;&gt;Map</title>
<path fill="none" stroke="black" d="M493.67,-436.98C454.22,-427.15 398.13,-412.25 350,-396 347.26,-395.08 344.44,-394.07 341.62,-393.01"/>
<polygon fill="black" stroke="black" points="342.92,-389.76 332.33,-389.4 340.38,-396.29 342.92,-389.76"/>
</g>
<!-- MapXpdRemap&#45;&gt;Key -->
<g id="edge34" class="edge">
<title>MapXpdRemap&#45;&gt;Key</title>
<path fill="none" stroke="black" d="M521.04,-432.64C506.76,-422.34 488.12,-408.64 472,-396 410.11,-347.48 339.71,-287.48 303.45,-256.21"/>
<polygon fill="black" stroke="black" points="305.99,-253.79 296.14,-249.9 301.42,-259.08 305.99,-253.79"/>
</g>
<!-- MapXpdRemap&#45;&gt;Names -->
<g id="edge33" class="edge">
<title>MapXpdRemap&#45;&gt;Names</title>
<path fill="none" stroke="black" d="M590.72,-436.29C646.69,-417.89 733,-378 733,-307 733,-307 733,-307 733,-161 733,-89.74 497.4,-42.99 395.29,-26.08"/>
<polygon fill="black" stroke="black" points="396.02,-22.65 385.59,-24.5 394.9,-29.56 396.02,-22.65"/>
</g>
<!-- MapXpdRemap&#45;&gt;MapTable -->
<g id="edge38" class="edge">
<title>MapXpdRemap&#45;&gt;MapTable</title>
<path fill="none" stroke="black" d="M548.41,-431.59C554.52,-407.5 565.61,-363.75 572.89,-335.03"/>
<polygon fill="black" stroke="black" points="576.23,-336.13 575.29,-325.58 569.44,-334.41 576.23,-336.13"/>
</g>
<!-- MapXpdRemap&#45;&gt;Labels -->
<g id="edge37" class="edge">
<title>MapXpdRemap&#45;&gt;Labels</title>
<path fill="none" stroke="black" d="M530.08,-432.2C510.94,-408.73 475.92,-364.47 450,-324 437.08,-303.83 424.3,-279.87 415.17,-261.9"/>
<polygon fill="black" stroke="black" points="418.41,-260.55 410.8,-253.18 412.15,-263.69 418.41,-260.55"/>
</g>
<!-- MapXpdRemap&#45;&gt;xpd0 -->
<g id="edge36" class="edge">
<title>MapXpdRemap&#45;&gt;xpd0</title>
<path fill="none" stroke="black" d="M574.83,-433.46C590.58,-424.29 609.09,-411.45 622,-396 644.45,-369.13 646.73,-358.26 654,-324 658.34,-303.56 653.84,-280.32 648.52,-262.72"/>
<polygon fill="black" stroke="black" points="651.85,-261.62 645.38,-253.23 645.2,-263.82 651.85,-261.62"/>
</g>
<!-- MapXpdRemap&#45;&gt;Hash -->
<g id="edge35" class="edge">
<title>MapXpdRemap&#45;&gt;Hash</title>
<path fill="none" stroke="black" d="M562.54,-432.15C585.42,-409.98 623.12,-368.55 638,-324 643.07,-308.82 645.44,-302.16 638,-288 632.85,-278.2 611.31,-263.78 592.31,-252.46"/>
<polygon fill="black" stroke="black" points="594.14,-249.48 583.74,-247.46 590.61,-255.52 594.14,-249.48"/>
</g>
<!-- Log&#45;&gt;Parameters -->
<g id="edge40" class="edge">
<title>Log&#45;&gt;Parameters</title>
<path fill="none" stroke="black" d="M354.27,-143.7C353.54,-136.41 352.67,-127.73 351.85,-119.54"/>
<polygon fill="black" stroke="black" points="355.34,-119.21 350.86,-109.61 348.37,-119.91 355.34,-119.21"/>
</g>
<!-- Parameters&#45;&gt;Names -->
<g id="edge41" class="edge">
<title>Parameters&#45;&gt;Names</title>
<path fill="none" stroke="black" d="M349,-71.7C349,-64.41 349,-55.73 349,-47.54"/>
<polygon fill="black" stroke="black" points="352.5,-47.62 349,-37.62 345.5,-47.62 352.5,-47.62"/>
</g>
<!-- Hash&#45;&gt;Parameters -->
<g id="edge43" class="edge">
<title>Hash&#45;&gt;Parameters</title>
<path fill="none" stroke="black" d="M552.14,-216.62C540.68,-196.85 518.95,-163.78 492,-144 465.71,-124.71 431.62,-111.71 403.32,-103.42"/>
<polygon fill="black" stroke="black" points="404.42,-100.09 393.85,-100.77 402.54,-106.83 404.42,-100.09"/>
</g>
<!-- hash0 -->
<g id="node19" class="node">
<title>hash0</title>
<ellipse fill="none" stroke="black" cx="609" cy="-162" rx="32.41" ry="18"/>
<text text-anchor="middle" x="609" y="-156.95" font-family="Times,serif" font-size="14.00">hash0</text>
</g>
<!-- Hash&#45;&gt;hash0 -->
<g id="edge42" class="edge">
<title>Hash&#45;&gt;hash0</title>
<path fill="none" stroke="black" d="M571.89,-217.12C577.64,-208.73 584.84,-198.24 591.36,-188.73"/>
<polygon fill="black" stroke="black" points="594.19,-190.78 596.96,-180.56 588.42,-186.82 594.19,-190.78"/>
</g>
</g>
</svg>
