<?xml version="1.0" encoding="UTF-8" standalone="no"?>
<!DOCTYPE svg PUBLIC "-//W3C//DTD SVG 1.1//EN"
 "http://www.w3.org/Graphics/SVG/1.1/DTD/svg11.dtd">
<!-- Generated by graphviz version 12.2.1 (20241206.2353)
 -->
<!-- Pages: 1 -->
<svg width="294pt" height="260pt"
 viewBox="0.00 0.00 293.80 260.00" xmlns="http://www.w3.org/2000/svg" xmlns:xlink="http://www.w3.org/1999/xlink">
<g id="graph0" class="graph" transform="scale(1 1) rotate(0) translate(4 256)">
<polygon fill="white" stroke="none" points="-4,4 -4,-256 289.8,-256 289.8,4 -4,4"/>
<!-- Names -->
<g id="node1" class="node">
<title>Names</title>
<ellipse fill="none" stroke="black" cx="186.8" cy="-234" rx="37.02" ry="18"/>
<text text-anchor="middle" x="186.8" y="-228.95" font-family="Times,serif" font-size="14.00">Names</text>
</g>
<!-- Xpd -->
<g id="node2" class="node">
<title>Xpd</title>
<ellipse fill="none" stroke="black" cx="186.8" cy="-162" rx="27" ry="18"/>
<text text-anchor="middle" x="186.8" y="-156.95" font-family="Times,serif" font-size="14.00">Xpd</text>
</g>
<!-- Names&#45;&#45;Xpd -->
<g id="edge1" class="edge">
<title>Names&#45;&#45;Xpd</title>
<path fill="none" stroke="black" d="M186.8,-215.7C186.8,-204.85 186.8,-190.92 186.8,-180.1"/>
</g>
<!-- MapXpdRemap -->
<g id="node3" class="node">
<title>MapXpdRemap</title>
<ellipse fill="none" stroke="black" cx="70.8" cy="-162" rx="70.8" ry="18"/>
<text text-anchor="middle" x="70.8" y="-156.95" font-family="Times,serif" font-size="14.00">MapXpdRemap</text>
</g>
<!-- Names&#45;&#45;MapXpdRemap -->
<g id="edge2" class="edge">
<title>Names&#45;&#45;MapXpdRemap</title>
<path fill="none" stroke="black" d="M164.16,-219.34C145.04,-207.8 117.63,-191.26 97.45,-179.08"/>
</g>
<!-- Log -->
<g id="node4" class="node">
<title>Log</title>
<ellipse fill="none" stroke="black" cx="258.8" cy="-162" rx="27" ry="18"/>
<text text-anchor="middle" x="258.8" y="-156.95" font-family="Times,serif" font-size="14.00">Log</text>
</g>
<!-- Names&#45;&#45;Log -->
<g id="edge3" class="edge">
<title>Names&#45;&#45;Log</title>
<path fill="none" stroke="black" d="M202.78,-217.46C215.21,-205.38 232.31,-188.76 244.33,-177.07"/>
</g>
<!-- Hash -->
<g id="node5" class="node">
<title>Hash</title>
<ellipse fill="none" stroke="black" cx="115.8" cy="-90" rx="29.86" ry="18"/>
<text text-anchor="middle" x="115.8" y="-84.95" font-family="Times,serif" font-size="14.00">Hash</text>
</g>
<!-- Xpd&#45;&#45;Hash -->
<g id="edge4" class="edge">
<title>Xpd&#45;&#45;Hash</title>
<path fill="none" stroke="black" d="M172.09,-146.5C160.07,-134.64 143.13,-117.95 130.98,-105.97"/>
</g>
<!-- Key -->
<g id="node6" class="node">
<title>Key</title>
<ellipse fill="none" stroke="black" cx="190.8" cy="-90" rx="27" ry="18"/>
<text text-anchor="middle" x="190.8" y="-84.95" font-family="Times,serif" font-size="14.00">Key</text>
</g>
<!-- Xpd&#45;&#45;Key -->
<g id="edge5" class="edge">
<title>Xpd&#45;&#45;Key</title>
<path fill="none" stroke="black" d="M187.79,-143.7C188.41,-132.85 189.2,-118.92 189.82,-108.1"/>
</g>
<!-- MapXpdRemap&#45;&#45;Hash -->
<g id="edge7" class="edge">
<title>MapXpdRemap&#45;&#45;Hash</title>
<path fill="none" stroke="black" d="M81.69,-144.05C88.87,-132.89 98.22,-118.34 105.32,-107.31"/>
</g>
<!-- MapXpdRemap&#45;&#45;Key -->
<g id="edge6" class="edge">
<title>MapXpdRemap&#45;&#45;Key</title>
<path fill="none" stroke="black" d="M98.33,-144.94C120.47,-132.02 151.06,-114.18 170.88,-102.62"/>
</g>
<!-- Log&#45;&#45;Key -->
<g id="edge8" class="edge">
<title>Log&#45;&#45;Key</title>
<path fill="none" stroke="black" d="M244.71,-146.5C233.04,-134.48 216.54,-117.49 204.87,-105.49"/>
</g>
<!-- Parameters -->
<g id="node7" class="node">
<title>Parameters</title>
<ellipse fill="none" stroke="black" cx="180.8" cy="-18" rx="52.38" ry="18"/>
<text text-anchor="middle" x="180.8" y="-12.95" font-family="Times,serif" font-size="14.00">Parameters</text>
</g>
<!-- Log&#45;&#45;Parameters -->
<g id="edge9" class="edge">
<title>Log&#45;&#45;Parameters</title>
<path fill="none" stroke="black" d="M254.65,-143.78C249.72,-125.23 240.41,-95.23 226.8,-72 218.92,-58.54 207.42,-45.29 197.89,-35.41"/>
</g>
<!-- Hash&#45;&#45;Parameters -->
<g id="edge10" class="edge">
<title>Hash&#45;&#45;Parameters</title>
<path fill="none" stroke="black" d="M129.9,-73.81C140.36,-62.55 154.6,-47.22 165.36,-35.63"/>
</g>
</g>
</svg>
