<?xml version="1.0" encoding="UTF-8" standalone="no"?>
<!DOCTYPE svg PUBLIC "-//W3C//DTD SVG 1.1//EN"
 "http://www.w3.org/Graphics/SVG/1.1/DTD/svg11.dtd">
<!-- Generated by graphviz version 12.2.1 (20241206.2353)
 -->
<!-- Pages: 1 -->
<svg width="277pt" height="332pt"
 viewBox="0.00 0.00 277.00 332.00" xmlns="http://www.w3.org/2000/svg" xmlns:xlink="http://www.w3.org/1999/xlink">
<g id="graph0" class="graph" transform="scale(1 1) rotate(0) translate(4 328)">
<polygon fill="white" stroke="none" points="-4,4 -4,-328 273,-328 273,4 -4,4"/>
<!-- Key -->
<g id="node1" class="node">
<title>Key</title>
<ellipse fill="none" stroke="black" cx="143" cy="-306" rx="27" ry="18"/>
<text text-anchor="middle" x="143" y="-300.95" font-family="Times,serif" font-size="14.00">Key</text>
</g>
<!-- Xtr -->
<g id="node2" class="node">
<title>Xtr</title>
<ellipse fill="none" stroke="black" cx="242" cy="-162" rx="27" ry="18"/>
<text text-anchor="middle" x="242" y="-156.95" font-family="Times,serif" font-size="14.00">Xtr</text>
</g>
<!-- Key&#45;&#45;Xtr -->
<g id="edge1" class="edge">
<title>Key&#45;&#45;Xtr</title>
<path fill="none" stroke="black" d="M165.55,-295.89C183.88,-287.3 208.93,-272.65 223,-252 237.77,-230.32 241.37,-199.34 242.08,-180.23"/>
</g>
<!-- Xpd -->
<g id="node3" class="node">
<title>Xpd</title>
<ellipse fill="none" stroke="black" cx="27" cy="-234" rx="27" ry="18"/>
<text text-anchor="middle" x="27" y="-228.95" font-family="Times,serif" font-size="14.00">Xpd</text>
</g>
<!-- Key&#45;&#45;Xpd -->
<g id="edge2" class="edge">
<title>Key&#45;&#45;Xpd</title>
<path fill="none" stroke="black" d="M123.32,-293.13C101.86,-280.18 67.73,-259.58 46.39,-246.7"/>
</g>
<!-- MapXpdRemap -->
<g id="node4" class="node">
<title>MapXpdRemap</title>
<ellipse fill="none" stroke="black" cx="143" cy="-234" rx="70.8" ry="18"/>
<text text-anchor="middle" x="143" y="-228.95" font-family="Times,serif" font-size="14.00">MapXpdRemap</text>
</g>
<!-- Key&#45;&#45;MapXpdRemap -->
<g id="edge3" class="edge">
<title>Key&#45;&#45;MapXpdRemap</title>
<path fill="none" stroke="black" d="M143,-287.7C143,-276.85 143,-262.92 143,-252.1"/>
</g>
<!-- Parameters -->
<g id="node6" class="node">
<title>Parameters</title>
<ellipse fill="none" stroke="black" cx="107" cy="-90" rx="52.38" ry="18"/>
<text text-anchor="middle" x="107" y="-84.95" font-family="Times,serif" font-size="14.00">Parameters</text>
</g>
<!-- Xtr&#45;&#45;Parameters -->
<g id="edge4" class="edge">
<title>Xtr&#45;&#45;Parameters</title>
<path fill="none" stroke="black" d="M221.2,-150.22C198.13,-138.25 160.77,-118.88 135.1,-105.57"/>
</g>
<!-- Names -->
<g id="node5" class="node">
<title>Names</title>
<ellipse fill="none" stroke="black" cx="107" cy="-162" rx="37.02" ry="18"/>
<text text-anchor="middle" x="107" y="-156.95" font-family="Times,serif" font-size="14.00">Names</text>
</g>
<!-- Xpd&#45;&#45;Names -->
<g id="edge5" class="edge">
<title>Xpd&#45;&#45;Names</title>
<path fill="none" stroke="black" d="M42.81,-219.17C56.28,-207.38 75.63,-190.45 89.56,-178.26"/>
</g>
<!-- Hash -->
<g id="node7" class="node">
<title>Hash</title>
<ellipse fill="none" stroke="black" cx="107" cy="-18" rx="29.86" ry="18"/>
<text text-anchor="middle" x="107" y="-12.95" font-family="Times,serif" font-size="14.00">Hash</text>
</g>
<!-- Xpd&#45;&#45;Hash -->
<g id="edge6" class="edge">
<title>Xpd&#45;&#45;Hash</title>
<path fill="none" stroke="black" d="M25.15,-215.84C22.64,-185.06 21,-119.27 46,-72 55.12,-54.76 72.32,-40.62 86.13,-31.29"/>
</g>
<!-- MapXpdRemap&#45;&#45;Names -->
<g id="edge7" class="edge">
<title>MapXpdRemap&#45;&#45;Names</title>
<path fill="none" stroke="black" d="M134.1,-215.7C128.44,-204.68 121.14,-190.5 115.55,-179.62"/>
</g>
<!-- MapXpdRemap&#45;&#45;Hash -->
<g id="edge8" class="edge">
<title>MapXpdRemap&#45;&#45;Hash</title>
<path fill="none" stroke="black" d="M151.8,-215.68C165.98,-185.22 190.18,-120.64 168,-72 159.91,-54.26 142.62,-40.16 128.51,-30.97"/>
</g>
<!-- Names&#45;&#45;Parameters -->
<g id="edge9" class="edge">
<title>Names&#45;&#45;Parameters</title>
<path fill="none" stroke="black" d="M107,-143.7C107,-132.85 107,-118.92 107,-108.1"/>
</g>
<!-- Parameters&#45;&#45;Hash -->
<g id="edge10" class="edge">
<title>Parameters&#45;&#45;Hash</title>
<path fill="none" stroke="black" d="M107,-71.7C107,-60.85 107,-46.92 107,-36.1"/>
</g>
</g>
</svg>
