<?xml version="1.0" encoding="UTF-8" standalone="no"?>
<!DOCTYPE svg PUBLIC "-//W3C//DTD SVG 1.1//EN"
 "http://www.w3.org/Graphics/SVG/1.1/DTD/svg11.dtd">
<!-- Generated by graphviz version 12.2.1 (20241206.2353)
 -->
<!-- Pages: 1 -->
<svg width="240pt" height="260pt"
 viewBox="0.00 0.00 240.19 260.00" xmlns="http://www.w3.org/2000/svg" xmlns:xlink="http://www.w3.org/1999/xlink">
<g id="graph0" class="graph" transform="scale(1 1) rotate(0) translate(4 256)">
<polygon fill="white" stroke="none" points="-4,4 -4,-256 236.19,-256 236.19,4 -4,4"/>
<!-- Names -->
<g id="node1" class="node">
<title>Names</title>
<ellipse fill="none" stroke="black" cx="133.19" cy="-234" rx="37.02" ry="18"/>
<text text-anchor="middle" x="133.19" y="-228.95" font-family="Times,serif" font-size="14.00">Names</text>
</g>
<!-- Xpd -->
<g id="node2" class="node">
<title>Xpd</title>
<ellipse fill="none" stroke="black" cx="133.19" cy="-162" rx="27" ry="18"/>
<text text-anchor="middle" x="133.19" y="-156.95" font-family="Times,serif" font-size="14.00">Xpd</text>
</g>
<!-- Names&#45;&#45;Xpd -->
<g id="edge1" class="edge">
<title>Names&#45;&#45;Xpd</title>
<path fill="none" stroke="black" d="M133.19,-215.7C133.19,-204.85 133.19,-190.92 133.19,-180.1"/>
</g>
<!-- MapXpd -->
<g id="node3" class="node">
<title>MapXpd</title>
<ellipse fill="none" stroke="black" cx="44.19" cy="-162" rx="44.19" ry="18"/>
<text text-anchor="middle" x="44.19" y="-156.95" font-family="Times,serif" font-size="14.00">MapXpd</text>
</g>
<!-- Names&#45;&#45;MapXpd -->
<g id="edge2" class="edge">
<title>Names&#45;&#45;MapXpd</title>
<path fill="none" stroke="black" d="M114.31,-218.15C99.51,-206.52 78.98,-190.37 63.96,-178.55"/>
</g>
<!-- Log -->
<g id="node4" class="node">
<title>Log</title>
<ellipse fill="none" stroke="black" cx="205.19" cy="-162" rx="27" ry="18"/>
<text text-anchor="middle" x="205.19" y="-156.95" font-family="Times,serif" font-size="14.00">Log</text>
</g>
<!-- Names&#45;&#45;Log -->
<g id="edge3" class="edge">
<title>Names&#45;&#45;Log</title>
<path fill="none" stroke="black" d="M149.17,-217.46C161.59,-205.38 178.69,-188.76 190.72,-177.07"/>
</g>
<!-- Hash -->
<g id="node5" class="node">
<title>Hash</title>
<ellipse fill="none" stroke="black" cx="62.19" cy="-90" rx="29.86" ry="18"/>
<text text-anchor="middle" x="62.19" y="-84.95" font-family="Times,serif" font-size="14.00">Hash</text>
</g>
<!-- Xpd&#45;&#45;Hash -->
<g id="edge4" class="edge">
<title>Xpd&#45;&#45;Hash</title>
<path fill="none" stroke="black" d="M118.47,-146.5C106.45,-134.64 89.52,-117.95 77.37,-105.97"/>
</g>
<!-- Key -->
<g id="node6" class="node">
<title>Key</title>
<ellipse fill="none" stroke="black" cx="137.19" cy="-90" rx="27" ry="18"/>
<text text-anchor="middle" x="137.19" y="-84.95" font-family="Times,serif" font-size="14.00">Key</text>
</g>
<!-- Xpd&#45;&#45;Key -->
<g id="edge5" class="edge">
<title>Xpd&#45;&#45;Key</title>
<path fill="none" stroke="black" d="M134.17,-143.7C134.79,-132.85 135.59,-118.92 136.21,-108.1"/>
</g>
<!-- MapXpd&#45;&#45;Hash -->
<g id="edge7" class="edge">
<title>MapXpd&#45;&#45;Hash</title>
<path fill="none" stroke="black" d="M48.64,-143.7C51.43,-132.85 55.01,-118.92 57.79,-108.1"/>
</g>
<!-- MapXpd&#45;&#45;Key -->
<g id="edge6" class="edge">
<title>MapXpd&#45;&#45;Key</title>
<path fill="none" stroke="black" d="M64.37,-145.81C80.93,-133.35 104.13,-115.88 119.86,-104.04"/>
</g>
<!-- Log&#45;&#45;Key -->
<g id="edge8" class="edge">
<title>Log&#45;&#45;Key</title>
<path fill="none" stroke="black" d="M191.1,-146.5C179.43,-134.48 162.92,-117.49 151.26,-105.49"/>
</g>
<!-- Parameters -->
<g id="node7" class="node">
<title>Parameters</title>
<ellipse fill="none" stroke="black" cx="127.19" cy="-18" rx="52.38" ry="18"/>
<text text-anchor="middle" x="127.19" y="-12.95" font-family="Times,serif" font-size="14.00">Parameters</text>
</g>
<!-- Log&#45;&#45;Parameters -->
<g id="edge9" class="edge">
<title>Log&#45;&#45;Parameters</title>
<path fill="none" stroke="black" d="M201.03,-143.78C196.1,-125.23 186.8,-95.23 173.19,-72 165.3,-58.54 153.8,-45.29 144.27,-35.41"/>
</g>
<!-- Hash&#45;&#45;Parameters -->
<g id="edge10" class="edge">
<title>Hash&#45;&#45;Parameters</title>
<path fill="none" stroke="black" d="M76.29,-73.81C86.74,-62.55 100.99,-47.22 111.75,-35.63"/>
</g>
</g>
</svg>
