<?xml version="1.0" encoding="UTF-8" standalone="no"?>
<!DOCTYPE svg PUBLIC "-//W3C//DTD SVG 1.1//EN"
 "http://www.w3.org/Graphics/SVG/1.1/DTD/svg11.dtd">
<!-- Generated by graphviz version 12.2.1 (20241206.2353)
 -->
<!-- Pages: 1 -->
<svg width="239pt" height="332pt"
 viewBox="0.00 0.00 239.07 332.00" xmlns="http://www.w3.org/2000/svg" xmlns:xlink="http://www.w3.org/1999/xlink">
<g id="graph0" class="graph" transform="scale(1 1) rotate(0) translate(4 328)">
<polygon fill="white" stroke="none" points="-4,4 -4,-328 235.07,-328 235.07,4 -4,4"/>
<!-- Key -->
<g id="node1" class="node">
<title>Key</title>
<ellipse fill="none" stroke="black" cx="132.07" cy="-306" rx="27" ry="18"/>
<text text-anchor="middle" x="132.07" y="-300.95" font-family="Times,serif" font-size="14.00">Key</text>
</g>
<!-- Xtr -->
<g id="node2" class="node">
<title>Xtr</title>
<ellipse fill="none" stroke="black" cx="204.07" cy="-162" rx="27" ry="18"/>
<text text-anchor="middle" x="204.07" y="-156.95" font-family="Times,serif" font-size="14.00">Xtr</text>
</g>
<!-- Key&#45;&#45;Xtr -->
<g id="edge1" class="edge">
<title>Key&#45;&#45;Xtr</title>
<path fill="none" stroke="black" d="M149.75,-291.87C161.55,-282.15 176.44,-267.89 185.07,-252 197.45,-229.23 201.77,-199.11 203.27,-180.4"/>
</g>
<!-- Xpd -->
<g id="node3" class="node">
<title>Xpd</title>
<ellipse fill="none" stroke="black" cx="43.07" cy="-234" rx="27" ry="18"/>
<text text-anchor="middle" x="43.07" y="-228.95" font-family="Times,serif" font-size="14.00">Xpd</text>
</g>
<!-- Key&#45;&#45;Xpd -->
<g id="edge2" class="edge">
<title>Key&#45;&#45;Xpd</title>
<path fill="none" stroke="black" d="M115.33,-291.83C99.52,-279.4 75.93,-260.84 60.04,-248.35"/>
</g>
<!-- MapXpd -->
<g id="node4" class="node">
<title>MapXpd</title>
<ellipse fill="none" stroke="black" cx="132.07" cy="-234" rx="44.19" ry="18"/>
<text text-anchor="middle" x="132.07" y="-228.95" font-family="Times,serif" font-size="14.00">MapXpd</text>
</g>
<!-- Key&#45;&#45;MapXpd -->
<g id="edge3" class="edge">
<title>Key&#45;&#45;MapXpd</title>
<path fill="none" stroke="black" d="M132.07,-287.7C132.07,-276.85 132.07,-262.92 132.07,-252.1"/>
</g>
<!-- Parameters -->
<g id="node6" class="node">
<title>Parameters</title>
<ellipse fill="none" stroke="black" cx="69.07" cy="-90" rx="52.38" ry="18"/>
<text text-anchor="middle" x="69.07" y="-84.95" font-family="Times,serif" font-size="14.00">Parameters</text>
</g>
<!-- Xtr&#45;&#45;Parameters -->
<g id="edge4" class="edge">
<title>Xtr&#45;&#45;Parameters</title>
<path fill="none" stroke="black" d="M183.28,-150.22C160.2,-138.25 122.84,-118.88 97.17,-105.57"/>
</g>
<!-- Names -->
<g id="node5" class="node">
<title>Names</title>
<ellipse fill="none" stroke="black" cx="69.07" cy="-162" rx="37.02" ry="18"/>
<text text-anchor="middle" x="69.07" y="-156.95" font-family="Times,serif" font-size="14.00">Names</text>
</g>
<!-- Xpd&#45;&#45;Names -->
<g id="edge5" class="edge">
<title>Xpd&#45;&#45;Names</title>
<path fill="none" stroke="black" d="M49.37,-216.05C53.46,-205.05 58.76,-190.76 62.84,-179.79"/>
</g>
<!-- Hash -->
<g id="node7" class="node">
<title>Hash</title>
<ellipse fill="none" stroke="black" cx="69.07" cy="-18" rx="29.86" ry="18"/>
<text text-anchor="middle" x="69.07" y="-12.95" font-family="Times,serif" font-size="14.00">Hash</text>
</g>
<!-- Xpd&#45;&#45;Hash -->
<g id="edge6" class="edge">
<title>Xpd&#45;&#45;Hash</title>
<path fill="none" stroke="black" d="M33.33,-217.21C16.37,-187.55 -14.71,-121.97 8.07,-72 16.16,-54.26 33.45,-40.16 47.57,-30.97"/>
</g>
<!-- MapXpd&#45;&#45;Names -->
<g id="edge7" class="edge">
<title>MapXpd&#45;&#45;Names</title>
<path fill="none" stroke="black" d="M117.46,-216.76C107.14,-205.29 93.38,-190.01 83.17,-178.67"/>
</g>
<!-- MapXpd&#45;&#45;Hash -->
<g id="edge8" class="edge">
<title>MapXpd&#45;&#45;Hash</title>
<path fill="none" stroke="black" d="M136.2,-216.02C142.69,-185.53 152.41,-120.19 130.07,-72 121.88,-54.31 104.6,-40.2 90.51,-31.01"/>
</g>
<!-- Names&#45;&#45;Parameters -->
<g id="edge9" class="edge">
<title>Names&#45;&#45;Parameters</title>
<path fill="none" stroke="black" d="M69.07,-143.7C69.07,-132.85 69.07,-118.92 69.07,-108.1"/>
</g>
<!-- Parameters&#45;&#45;Hash -->
<g id="edge10" class="edge">
<title>Parameters&#45;&#45;Hash</title>
<path fill="none" stroke="black" d="M69.07,-71.7C69.07,-60.85 69.07,-46.92 69.07,-36.1"/>
</g>
</g>
</svg>
