<?xml version="1.0" encoding="UTF-8" standalone="no"?>
<!DOCTYPE svg PUBLIC "-//W3C//DTD SVG 1.1//EN"
 "http://www.w3.org/Graphics/SVG/1.1/DTD/svg11.dtd">
<!-- Generated by graphviz version 12.2.1 (20241206.2353)
 -->
<!-- Pages: 1 -->
<svg width="836pt" height="620pt"
 viewBox="0.00 0.00 836.00 620.00" xmlns="http://www.w3.org/2000/svg" xmlns:xlink="http://www.w3.org/1999/xlink">
<g id="graph0" class="graph" transform="scale(1 1) rotate(0) translate(4 616)">
<polygon fill="white" stroke="none" points="-4,4 -4,-616 832,-616 832,4 -4,4"/>
<!-- adversary -->
<g id="node1" class="node">
<title>adversary</title>
<ellipse fill="none" stroke="black" cx="366" cy="-594" rx="46.75" ry="18"/>
<text text-anchor="middle" x="366" y="-588.95" font-family="Times,serif" font-size="14.00">adversary</text>
</g>
<!-- Map -->
<g id="node2" class="node">
<title>Map</title>
<ellipse fill="none" stroke="black" cx="317" cy="-378" rx="28.32" ry="18"/>
<text text-anchor="middle" x="317" y="-372.95" font-family="Times,serif" font-size="14.00">Map</text>
</g>
<!-- adversary&#45;&gt;Map -->
<g id="edge1" class="edge">
<title>adversary&#45;&gt;Map</title>
<path fill="none" stroke="black" d="M362.07,-575.85C353.65,-539.07 333.78,-452.29 323.47,-407.24"/>
<polygon fill="black" stroke="black" points="326.93,-406.67 321.28,-397.71 320.1,-408.24 326.93,-406.67"/>
</g>
<!-- Check -->
<g id="node3" class="node">
<title>Check</title>
<ellipse fill="none" stroke="black" cx="421" cy="-522" rx="34.46" ry="18"/>
<text text-anchor="middle" x="421" y="-516.95" font-family="Times,serif" font-size="14.00">Check</text>
</g>
<!-- adversary&#45;&gt;Check -->
<g id="edge2" class="edge">
<title>adversary&#45;&gt;Check</title>
<path fill="none" stroke="black" d="M379.03,-576.41C385.71,-567.92 393.96,-557.41 401.39,-547.96"/>
<polygon fill="black" stroke="black" points="404.08,-550.2 407.5,-540.18 398.57,-545.88 404.08,-550.2"/>
</g>
<!-- MapTable -->
<g id="node4" class="node">
<title>MapTable</title>
<ellipse fill="none" stroke="black" cx="618" cy="-306" rx="49.3" ry="18"/>
<text text-anchor="middle" x="618" y="-300.95" font-family="Times,serif" font-size="14.00">MapTable</text>
</g>
<!-- Map&#45;&gt;MapTable -->
<g id="edge3" class="edge">
<title>Map&#45;&gt;MapTable</title>
<path fill="none" stroke="black" d="M343.45,-370.85C393.11,-359.3 501.15,-334.17 565.91,-319.11"/>
<polygon fill="black" stroke="black" points="566.66,-322.53 575.61,-316.86 565.07,-315.72 566.66,-322.53"/>
</g>
<!-- Names -->
<g id="node5" class="node">
<title>Names</title>
<ellipse fill="none" stroke="black" cx="318" cy="-18" rx="37.02" ry="18"/>
<text text-anchor="middle" x="318" y="-12.95" font-family="Times,serif" font-size="14.00">Names</text>
</g>
<!-- Map&#45;&gt;Names -->
<g id="edge4" class="edge">
<title>Map&#45;&gt;Names</title>
<path fill="none" stroke="black" d="M288.31,-377.13C210.28,-375.85 0,-360.73 0,-235 0,-235 0,-235 0,-161 0,-44.55 180,-22.94 269.15,-19.39"/>
<polygon fill="black" stroke="black" points="269.19,-22.89 279.07,-19.06 268.96,-15.89 269.19,-22.89"/>
</g>
<!-- Xtr -->
<g id="node6" class="node">
<title>Xtr</title>
<ellipse fill="none" stroke="black" cx="224" cy="-306" rx="27" ry="18"/>
<text text-anchor="middle" x="224" y="-300.95" font-family="Times,serif" font-size="14.00">Xtr</text>
</g>
<!-- Map&#45;&gt;Xtr -->
<g id="edge5" class="edge">
<title>Map&#45;&gt;Xtr</title>
<path fill="none" stroke="black" d="M299.51,-363.83C285.61,-353.37 265.95,-338.58 250.18,-326.7"/>
<polygon fill="black" stroke="black" points="252.72,-324.24 242.62,-321.02 248.51,-329.83 252.72,-324.24"/>
</g>
<!-- Xpd -->
<g id="node7" class="node">
<title>Xpd</title>
<ellipse fill="none" stroke="black" cx="486" cy="-306" rx="27" ry="18"/>
<text text-anchor="middle" x="486" y="-300.95" font-family="Times,serif" font-size="14.00">Xpd</text>
</g>
<!-- Map&#45;&gt;Xpd -->
<g id="edge6" class="edge">
<title>Map&#45;&gt;Xpd</title>
<path fill="none" stroke="black" d="M340.14,-367.41C369.3,-355.34 419.61,-334.5 452.84,-320.73"/>
<polygon fill="black" stroke="black" points="454.11,-324 462.01,-316.94 451.43,-317.53 454.11,-324"/>
</g>
<!-- DH -->
<g id="node8" class="node">
<title>DH</title>
<ellipse fill="none" stroke="black" cx="152" cy="-306" rx="27" ry="18"/>
<text text-anchor="middle" x="152" y="-300.95" font-family="Times,serif" font-size="14.00">DH</text>
</g>
<!-- Map&#45;&gt;DH -->
<g id="edge7" class="edge">
<title>Map&#45;&gt;DH</title>
<path fill="none" stroke="black" d="M293.54,-367.78C267.57,-357.48 224.55,-340.13 188,-324 186.68,-323.42 185.34,-322.82 183.99,-322.21"/>
<polygon fill="black" stroke="black" points="185.54,-319.07 174.99,-318.06 182.61,-325.43 185.54,-319.07"/>
</g>
<!-- Key -->
<g id="node9" class="node">
<title>Key</title>
<ellipse fill="none" stroke="black" cx="320" cy="-234" rx="27" ry="18"/>
<text text-anchor="middle" x="320" y="-228.95" font-family="Times,serif" font-size="14.00">Key</text>
</g>
<!-- Map&#45;&gt;Key -->
<g id="edge8" class="edge">
<title>Map&#45;&gt;Key</title>
<path fill="none" stroke="black" d="M317.37,-359.59C317.87,-335.61 318.79,-292.14 319.4,-263.42"/>
<polygon fill="black" stroke="black" points="322.89,-263.7 319.61,-253.62 315.9,-263.55 322.89,-263.7"/>
</g>
<!-- Labels -->
<g id="node10" class="node">
<title>Labels</title>
<ellipse fill="none" stroke="black" cx="417" cy="-234" rx="35.49" ry="18"/>
<text text-anchor="middle" x="417" y="-228.95" font-family="Times,serif" font-size="14.00">Labels</text>
</g>
<!-- Map&#45;&gt;Labels -->
<g id="edge9" class="edge">
<title>Map&#45;&gt;Labels</title>
<path fill="none" stroke="black" d="M328.28,-360.99C345.53,-336.48 378.64,-289.47 399.17,-260.32"/>
<polygon fill="black" stroke="black" points="401.84,-262.6 404.74,-252.41 396.12,-258.57 401.84,-262.6"/>
</g>
<!-- Check&#45;&gt;Map -->
<g id="edge11" class="edge">
<title>Check&#45;&gt;Map</title>
<path fill="none" stroke="black" d="M409.07,-504.71C390.95,-479.97 356.36,-432.74 335.12,-403.74"/>
<polygon fill="black" stroke="black" points="338.1,-401.89 329.37,-395.89 332.45,-406.02 338.1,-401.89"/>
</g>
<!-- Check&#45;&gt;Names -->
<g id="edge10" class="edge">
<title>Check&#45;&gt;Names</title>
<path fill="none" stroke="black" d="M454.31,-516.7C551.51,-503.22 828,-457.95 828,-379 828,-379 828,-379 828,-161 828,-97.42 774.51,-96.87 716,-72 653.85,-45.58 457.79,-28.79 366.12,-22.19"/>
<polygon fill="black" stroke="black" points="366.42,-18.7 356.2,-21.49 365.93,-25.69 366.42,-18.7"/>
</g>
<!-- MapXpd -->
<g id="node11" class="node">
<title>MapXpd</title>
<ellipse fill="none" stroke="black" cx="486" cy="-450" rx="44.19" ry="18"/>
<text text-anchor="middle" x="486" y="-444.95" font-family="Times,serif" font-size="14.00">MapXpd</text>
</g>
<!-- Check&#45;&gt;MapXpd -->
<g id="edge12" class="edge">
<title>Check&#45;&gt;MapXpd</title>
<path fill="none" stroke="black" d="M435.43,-505.46C443.64,-496.62 454.12,-485.34 463.4,-475.34"/>
<polygon fill="black" stroke="black" points="465.89,-477.8 470.13,-468.09 460.76,-473.03 465.89,-477.8"/>
</g>
<!-- MapTable&#45;&gt;Names -->
<g id="edge13" class="edge">
<title>MapTable&#45;&gt;Names</title>
<path fill="none" stroke="black" d="M660.34,-296.4C685.03,-289.02 714.31,-275.67 730,-252 756.52,-211.97 760.58,-183.31 733,-144 690.02,-82.75 463.36,-41.23 364.35,-25.75"/>
<polygon fill="black" stroke="black" points="365.12,-22.32 354.7,-24.26 364.05,-29.24 365.12,-22.32"/>
</g>
<!-- Handles -->
<g id="node12" class="node">
<title>Handles</title>
<ellipse fill="none" stroke="black" cx="525" cy="-162" rx="41.12" ry="18"/>
<text text-anchor="middle" x="525" y="-156.95" font-family="Times,serif" font-size="14.00">Handles</text>
</g>
<!-- MapTable&#45;&gt;Handles -->
<g id="edge14" class="edge">
<title>MapTable&#45;&gt;Handles</title>
<path fill="none" stroke="black" d="M606.97,-288.15C590.96,-263.71 561.13,-218.17 542.22,-189.29"/>
<polygon fill="black" stroke="black" points="545.26,-187.54 536.85,-181.09 539.4,-191.37 545.26,-187.54"/>
</g>
<!-- Xtr&#45;&gt;Names -->
<g id="edge15" class="edge">
<title>Xtr&#45;&gt;Names</title>
<path fill="none" stroke="black" d="M202.79,-294.68C197.96,-292.41 192.83,-290.07 188,-288 147.27,-270.53 120.05,-288.56 95,-252 85.96,-238.8 92.05,-231.73 95,-216 110,-136.04 139.77,-116.3 208,-72 230.51,-57.38 257.66,-44.26 279.36,-34.73"/>
<polygon fill="black" stroke="black" points="280.64,-37.99 288.45,-30.82 277.88,-31.56 280.64,-37.99"/>
</g>
<!-- Xtr&#45;&gt;Key -->
<g id="edge16" class="edge">
<title>Xtr&#45;&gt;Key</title>
<path fill="none" stroke="black" d="M241.61,-292.16C256,-281.67 276.58,-266.66 293.04,-254.66"/>
<polygon fill="black" stroke="black" points="294.94,-257.61 300.96,-248.89 290.81,-251.95 294.94,-257.61"/>
</g>
<!-- xtr0 -->
<g id="node13" class="node">
<title>xtr0</title>
<ellipse fill="none" stroke="black" cx="131" cy="-234" rx="27" ry="18"/>
<text text-anchor="middle" x="131" y="-228.95" font-family="Times,serif" font-size="14.00">xtr0</text>
</g>
<!-- Xtr&#45;&gt;xtr0 -->
<g id="edge17" class="edge">
<title>Xtr&#45;&gt;xtr0</title>
<path fill="none" stroke="black" d="M206.51,-291.83C192.61,-281.37 172.95,-266.58 157.18,-254.7"/>
<polygon fill="black" stroke="black" points="159.72,-252.24 149.62,-249.02 155.51,-257.83 159.72,-252.24"/>
</g>
<!-- Sample -->
<g id="node14" class="node">
<title>Sample</title>
<ellipse fill="none" stroke="black" cx="181" cy="-162" rx="39.07" ry="18"/>
<text text-anchor="middle" x="181" y="-156.95" font-family="Times,serif" font-size="14.00">Sample</text>
</g>
<!-- Xtr&#45;&gt;Sample -->
<g id="edge18" class="edge">
<title>Xtr&#45;&gt;Sample</title>
<path fill="none" stroke="black" d="M219.81,-287.82C215.31,-269.81 207.76,-240.74 200,-216 197.42,-207.76 194.35,-198.89 191.45,-190.81"/>
<polygon fill="black" stroke="black" points="194.76,-189.68 188.03,-181.49 188.19,-192.08 194.76,-189.68"/>
</g>
<!-- Parameters -->
<g id="node15" class="node">
<title>Parameters</title>
<ellipse fill="none" stroke="black" cx="278" cy="-90" rx="52.38" ry="18"/>
<text text-anchor="middle" x="278" y="-84.95" font-family="Times,serif" font-size="14.00">Parameters</text>
</g>
<!-- Xtr&#45;&gt;Parameters -->
<g id="edge19" class="edge">
<title>Xtr&#45;&gt;Parameters</title>
<path fill="none" stroke="black" d="M214.77,-288.63C204.15,-270.3 185.75,-240 167,-216 153.45,-198.66 141.13,-200.45 133,-180 127.09,-165.13 123.83,-157.11 133,-144 151.88,-117 186.05,-103.71 216.48,-97.19"/>
<polygon fill="black" stroke="black" points="216.84,-100.68 226,-95.36 215.52,-93.81 216.84,-100.68"/>
</g>
<!-- Xpd&#45;&gt;Names -->
<g id="edge21" class="edge">
<title>Xpd&#45;&gt;Names</title>
<path fill="none" stroke="black" d="M503.32,-291.79C537.68,-263.93 608.37,-197.34 575,-144 528.77,-70.11 424.96,-38.76 364.37,-26.37"/>
<polygon fill="black" stroke="black" points="365.19,-22.97 354.71,-24.49 363.86,-29.84 365.19,-22.97"/>
</g>
<!-- Xpd&#45;&gt;Key -->
<g id="edge23" class="edge">
<title>Xpd&#45;&gt;Key</title>
<path fill="none" stroke="black" d="M463.61,-295.56C435.15,-283.56 385.77,-262.73 352.99,-248.91"/>
<polygon fill="black" stroke="black" points="354.53,-245.76 343.96,-245.1 351.81,-252.21 354.53,-245.76"/>
</g>
<!-- Xpd&#45;&gt;Labels -->
<g id="edge24" class="edge">
<title>Xpd&#45;&gt;Labels</title>
<path fill="none" stroke="black" d="M471.7,-290.5C462.61,-281.27 450.62,-269.11 440.19,-258.52"/>
<polygon fill="black" stroke="black" points="442.81,-256.2 433.3,-251.53 437.83,-261.11 442.81,-256.2"/>
</g>
<!-- Hash -->
<g id="node16" class="node">
<title>Hash</title>
<ellipse fill="none" stroke="black" cx="691" cy="-234" rx="29.86" ry="18"/>
<text text-anchor="middle" x="691" y="-228.95" font-family="Times,serif" font-size="14.00">Hash</text>
</g>
<!-- Xpd&#45;&gt;Hash -->
<g id="edge20" class="edge">
<title>Xpd&#45;&gt;Hash</title>
<path fill="none" stroke="black" d="M509.52,-296.97C545.06,-284.83 612.77,-261.71 654.69,-247.4"/>
<polygon fill="black" stroke="black" points="655.75,-250.73 664.09,-244.19 653.49,-244.11 655.75,-250.73"/>
</g>
<!-- xpd0 -->
<g id="node17" class="node">
<title>xpd0</title>
<ellipse fill="none" stroke="black" cx="500" cy="-234" rx="29.34" ry="18"/>
<text text-anchor="middle" x="500" y="-228.95" font-family="Times,serif" font-size="14.00">xpd0</text>
</g>
<!-- Xpd&#45;&gt;xpd0 -->
<g id="edge22" class="edge">
<title>Xpd&#45;&gt;xpd0</title>
<path fill="none" stroke="black" d="M489.46,-287.7C490.94,-280.32 492.7,-271.52 494.35,-263.25"/>
<polygon fill="black" stroke="black" points="497.75,-264.08 496.28,-253.59 490.89,-262.71 497.75,-264.08"/>
</g>
<!-- DH&#45;&gt;Names -->
<g id="edge25" class="edge">
<title>DH&#45;&gt;Names</title>
<path fill="none" stroke="black" d="M130.73,-294.59C115.16,-285.67 95.21,-271.21 86,-252 74.09,-227.17 99.94,-146.44 101,-144 116.66,-108.05 120.35,-95.16 152,-72 187.36,-46.12 235.84,-32.56 271.28,-25.67"/>
<polygon fill="black" stroke="black" points="271.59,-29.16 280.8,-23.92 270.34,-22.28 271.59,-29.16"/>
</g>
<!-- DH&#45;&gt;Key -->
<g id="edge26" class="edge">
<title>DH&#45;&gt;Key</title>
<path fill="none" stroke="black" d="M173.22,-294.72C178.06,-292.45 183.19,-290.1 188,-288 221.07,-273.57 259.4,-258.34 286.2,-247.93"/>
<polygon fill="black" stroke="black" points="287.46,-251.2 295.52,-244.33 284.93,-244.67 287.46,-251.2"/>
</g>
<!-- Key&#45;&gt;Names -->
<g id="edge27" class="edge">
<title>Key&#45;&gt;Names</title>
<path fill="none" stroke="black" d="M325.41,-215.96C334.02,-186.44 348.92,-123.97 339,-72 337.34,-63.31 334.28,-54.23 331,-46.09"/>
<polygon fill="black" stroke="black" points="334.29,-44.87 327.1,-37.08 327.86,-47.65 334.29,-44.87"/>
</g>
<!-- Key&#45;&gt;Handles -->
<g id="edge28" class="edge">
<title>Key&#45;&gt;Handles</title>
<path fill="none" stroke="black" d="M343.52,-224.97C377.4,-213.4 440.51,-191.85 482.64,-177.46"/>
<polygon fill="black" stroke="black" points="483.64,-180.82 491.97,-174.28 481.37,-174.2 483.64,-180.82"/>
</g>
<!-- Key&#45;&gt;Sample -->
<g id="edge32" class="edge">
<title>Key&#45;&gt;Sample</title>
<path fill="none" stroke="black" d="M298.89,-222.37C277.13,-211.41 242.8,-194.12 216.79,-181.02"/>
<polygon fill="black" stroke="black" points="218.43,-177.93 207.92,-176.56 215.28,-184.18 218.43,-177.93"/>
</g>
<!-- Key&#45;&gt;Parameters -->
<g id="edge29" class="edge">
<title>Key&#45;&gt;Parameters</title>
<path fill="none" stroke="black" d="M317.35,-215.67C314.34,-197.54 308.81,-168.38 301,-144 298.27,-135.46 294.64,-126.43 291.07,-118.28"/>
<polygon fill="black" stroke="black" points="294.29,-116.89 286.97,-109.23 287.91,-119.78 294.29,-116.89"/>
</g>
<!-- Log -->
<g id="node18" class="node">
<title>Log</title>
<ellipse fill="none" stroke="black" cx="265" cy="-162" rx="27" ry="18"/>
<text text-anchor="middle" x="265" y="-156.95" font-family="Times,serif" font-size="14.00">Log</text>
</g>
<!-- Key&#45;&gt;Log -->
<g id="edge30" class="edge">
<title>Key&#45;&gt;Log</title>
<path fill="none" stroke="black" d="M307.79,-217.46C300.89,-208.67 292.09,-197.48 284.27,-187.53"/>
<polygon fill="black" stroke="black" points="287.04,-185.38 278.11,-179.68 281.53,-189.71 287.04,-185.38"/>
</g>
<!-- Helpers -->
<g id="node19" class="node">
<title>Helpers</title>
<ellipse fill="none" stroke="black" cx="426" cy="-162" rx="39.58" ry="18"/>
<text text-anchor="middle" x="426" y="-156.95" font-family="Times,serif" font-size="14.00">Helpers</text>
</g>
<!-- Key&#45;&gt;Helpers -->
<g id="edge31" class="edge">
<title>Key&#45;&gt;Helpers</title>
<path fill="none" stroke="black" d="M338.46,-220.81C353.95,-210.58 376.4,-195.75 394.69,-183.67"/>
<polygon fill="black" stroke="black" points="396.41,-186.74 402.82,-178.31 392.55,-180.9 396.41,-186.74"/>
</g>
<!-- MapXpd&#45;&gt;Map -->
<g id="edge36" class="edge">
<title>MapXpd&#45;&gt;Map</title>
<path fill="none" stroke="black" d="M455.79,-436.49C426.36,-424.3 381.7,-405.8 351.04,-393.1"/>
<polygon fill="black" stroke="black" points="352.4,-389.88 341.82,-389.28 349.72,-396.34 352.4,-389.88"/>
</g>
<!-- MapXpd&#45;&gt;MapTable -->
<g id="edge33" class="edge">
<title>MapXpd&#45;&gt;MapTable</title>
<path fill="none" stroke="black" d="M508.52,-434.3C522.72,-424.43 540.97,-410.59 555,-396 573.38,-376.89 590.51,-352.05 602.25,-333.47"/>
<polygon fill="black" stroke="black" points="605.11,-335.5 607.4,-325.15 599.16,-331.81 605.11,-335.5"/>
</g>
<!-- MapXpd&#45;&gt;Names -->
<g id="edge35" class="edge">
<title>MapXpd&#45;&gt;Names</title>
<path fill="none" stroke="black" d="M530.2,-447.97C614.52,-443.41 790,-420.3 790,-307 790,-307 790,-307 790,-161 790,-73.01 485.4,-34.75 365.59,-23.11"/>
<polygon fill="black" stroke="black" points="366.05,-19.63 355.76,-22.17 365.38,-26.6 366.05,-19.63"/>
</g>
<!-- MapXpd&#45;&gt;Key -->
<g id="edge38" class="edge">
<title>MapXpd&#45;&gt;Key</title>
<path fill="none" stroke="black" d="M473.25,-432.56C444.18,-395.09 372.88,-303.17 338.77,-259.2"/>
<polygon fill="black" stroke="black" points="341.72,-257.29 332.82,-251.53 336.19,-261.58 341.72,-257.29"/>
</g>
<!-- MapXpd&#45;&gt;Labels -->
<g id="edge39" class="edge">
<title>MapXpd&#45;&gt;Labels</title>
<path fill="none" stroke="black" d="M480.47,-431.85C468.58,-394.99 440.51,-307.92 426.01,-262.96"/>
<polygon fill="black" stroke="black" points="429.42,-262.12 423.02,-253.67 422.76,-264.26 429.42,-262.12"/>
</g>
<!-- MapXpd&#45;&gt;Hash -->
<g id="edge34" class="edge">
<title>MapXpd&#45;&gt;Hash</title>
<path fill="none" stroke="black" d="M518.86,-437.77C563.01,-420.76 640.1,-383.96 676,-324 686.84,-305.89 690.43,-282.2 691.39,-263.81"/>
<polygon fill="black" stroke="black" points="694.89,-263.94 691.66,-253.85 687.89,-263.75 694.89,-263.94"/>
</g>
<!-- MapXpd&#45;&gt;xpd0 -->
<g id="edge37" class="edge">
<title>MapXpd&#45;&gt;xpd0</title>
<path fill="none" stroke="black" d="M494.5,-432.13C508.18,-402.88 532.52,-340.81 522,-288 520.26,-279.27 517.05,-270.17 513.62,-262.03"/>
<polygon fill="black" stroke="black" points="516.85,-260.69 509.53,-253.03 510.47,-263.58 516.85,-260.69"/>
</g>
<!-- Parameters&#45;&gt;Names -->
<g id="edge40" class="edge">
<title>Parameters&#45;&gt;Names</title>
<path fill="none" stroke="black" d="M287.68,-72.05C292.2,-64.14 297.69,-54.54 302.75,-45.69"/>
<polygon fill="black" stroke="black" points="305.73,-47.52 307.66,-37.1 299.66,-44.05 305.73,-47.52"/>
</g>
<!-- Hash&#45;&gt;Parameters -->
<g id="edge42" class="edge">
<title>Hash&#45;&gt;Parameters</title>
<path fill="none" stroke="black" d="M676.42,-217.99C655.82,-197.74 616.11,-162.14 575,-144 498.99,-110.46 403.14,-98.14 341.23,-93.61"/>
<polygon fill="black" stroke="black" points="341.8,-90.14 331.58,-92.96 341.32,-97.13 341.8,-90.14"/>
</g>
<!-- hash0 -->
<g id="node20" class="node">
<title>hash0</title>
<ellipse fill="none" stroke="black" cx="692" cy="-162" rx="32.41" ry="18"/>
<text text-anchor="middle" x="692" y="-156.95" font-family="Times,serif" font-size="14.00">hash0</text>
</g>
<!-- Hash&#45;&gt;hash0 -->
<g id="edge41" class="edge">
<title>Hash&#45;&gt;hash0</title>
<path fill="none" stroke="black" d="M691.25,-215.7C691.35,-208.41 691.48,-199.73 691.59,-191.54"/>
<polygon fill="black" stroke="black" points="695.09,-191.67 691.73,-181.62 688.09,-191.57 695.09,-191.67"/>
</g>
<!-- xpd0&#45;&gt;Helpers -->
<g id="edge43" class="edge">
<title>xpd0&#45;&gt;Helpers</title>
<path fill="none" stroke="black" d="M484.67,-218.5C474.88,-209.24 461.98,-197.04 450.77,-186.43"/>
<polygon fill="black" stroke="black" points="453.37,-184.07 443.7,-179.74 448.56,-189.16 453.37,-184.07"/>
</g>
<!-- Log&#45;&gt;Names -->
<g id="edge45" class="edge">
<title>Log&#45;&gt;Names</title>
<path fill="none" stroke="black" d="M247.73,-147.79C236.63,-138.14 223.16,-123.98 217,-108 211.24,-93.07 208.72,-85.69 217,-72 229.48,-51.36 252.94,-38.37 274.11,-30.41"/>
<polygon fill="black" stroke="black" points="275.15,-33.75 283.47,-27.19 272.87,-27.14 275.15,-33.75"/>
</g>
<!-- Log&#45;&gt;Parameters -->
<g id="edge44" class="edge">
<title>Log&#45;&gt;Parameters</title>
<path fill="none" stroke="black" d="M268.21,-143.7C269.58,-136.32 271.22,-127.52 272.75,-119.25"/>
<polygon fill="black" stroke="black" points="276.16,-120.06 274.55,-109.59 269.28,-118.79 276.16,-120.06"/>
</g>
</g>
</svg>
